<svg xmlns="http://www.w3.org/2000/svg" fill="none" viewBox="0 0 126 154">
  <defs/>
  <g clip-path="url(#clip0)">
    <path fill="#C4CAD9" d="M48.61 53.69a9.87 9.87 0 01-13.56 3.09L6.3 37.83a9.87 9.87 0 01-3.09-13.58 9.87 9.87 0 0113.57-3.09l28.73 18.95a9.87 9.87 0 013.1 13.58z"/>
    <path fill="#CCD1DE" d="M47.02 52.65a9.17 9.17 0 01-12.62 2.87L7.7 37.9a9.18 9.18 0 01-2.88-12.63 9.17 9.17 0 0112.62-2.87l26.71 17.63a9.18 9.18 0 012.87 12.62zM102.71 153.47a20.1 20.1 0 10-.02-40.2 20.1 20.1 0 00.02 40.2z"/>
    <path fill="#C2C8D9" d="M97.69 1H23.3A4.32 4.32 0 0019 5.32v141.36a4.32 4.32 0 004.32 4.32h74.37a4.32 4.32 0 004.31-4.32V5.32A4.32 4.32 0 0097.69 1z"/>
    <path fill="#fff" d="M80.96 6.41a6.58 6.58 0 01-6.49 5.6H46.5a6.57 6.57 0 01-6.5-5.6H25.17a3.09 3.09 0 00-3.09 3.1v132.93a3.1 3.1 0 003.1 3.1h70.85a3.09 3.09 0 003.09-3.1V9.49A3.1 3.1 0 0096 6.4l-15.05.01z"/>
    <path fill="#DBDBDB" d="M69.18 8.16H52.24a.56.56 0 100 1.13h16.94a.56.56 0 100-1.13zM73.58 9.3a.68.68 0 100-1.36.68.68 0 000 1.35z"/>
    <path fill="#C4CAD9" d="M115.7 136.9c-5.83 1.36-9.83-2.45-11.18-8.28l-13.4-49.8a10.93 10.93 0 018.16-13.07 10.9 10.9 0 0113.04 8.18L123.26 125c1.35 5.82-1.73 10.56-7.56 11.9z"/>
    <path fill="#CCD1DE" d="M110.81 75.13A9.15 9.15 0 1093 79.25l12.33 53.38a9.15 9.15 0 1017.82-4.12L110.8 75.13z"/>
    <path fill="#C4CAD9" d="M37.46 107.11a9.75 9.75 0 01-13.4 3.05L4.77 97.68a9.76 9.76 0 01-3.04-13.41 9.75 9.75 0 0113.4-3.05L34.41 93.7a9.76 9.76 0 013.05 13.41zM32.62 133.53a9.83 9.83 0 01-13.52 3.07L7.16 127.9a9.84 9.84 0 01-3.07-13.54 9.83 9.83 0 0113.52-3.07L29.55 120a9.84 9.84 0 013.07 13.53z"/>
    <path fill="#CCD1DE" d="M31.66 132.88a9.17 9.17 0 01-12.61 2.87l-11.13-8.13A9.18 9.18 0 015.06 115a9.17 9.17 0 0112.6-2.87l11.13 8.12a9.18 9.18 0 012.87 12.63zM36.4 106.44a9.17 9.17 0 01-12.61 2.87L5.66 97.56a9.18 9.18 0 01-2.87-12.63 9.17 9.17 0 0112.63-2.86l18.13 11.75a9.18 9.18 0 012.85 12.62z"/>
    <path fill="#C4CAD9" d="M42.44 80.83a9.8 9.8 0 01-13.46 3.06L4.57 68A9.8 9.8 0 011.5 54.5a9.8 9.8 0 0113.47-3.07l24.41 15.91a9.8 9.8 0 013.06 13.48z"/>
    <path fill="#CCD1DE" d="M41.15 80a9.17 9.17 0 01-12.62 2.87L5.67 67.97A9.18 9.18 0 012.8 55.33a9.17 9.17 0 0112.62-2.87l22.86 14.9A9.18 9.18 0 0141.15 80z"/>
    <path fill="#DEE3EF" d="M65.7 132.22c-1.39.5-2.89.75-4.5.78-1.23.02-2.4-.13-3.5-.46a9.18 9.18 0 01-2.9-1.39 6.92 6.92 0 01-1.99-2.24 6.85 6.85 0 013.67-9.58 7.4 7.4 0 012.66-.55l2.16-.04-.02-.94a27.94 27.94 0 01-2.22.04 8.65 8.65 0 00-5.7 2.26 7.92 7.92 0 00-1.49 9.21 7.65 7.65 0 002.21 2.56c.93.7 2 1.23 3.24 1.6 1.23.38 2.53.55 3.9.53 1.79-.03 3.44-.34 4.97-.9a10.69 10.69 0 003.81-2.33l-.84-.58a9.68 9.68 0 01-3.46 2.03z"/>
    <path fill="#DEE3EF" d="M64.77 130.44c-1.11.36-2.32.55-3.61.57a8.31 8.31 0 01-4.98-1.33 4.42 4.42 0 01-2.1-3.74c-.02-1.07.22-2 .73-2.8.5-.81 1.17-1.4 1.99-1.8.8-.4 1.71-.6 2.7-.62.57 0 1.19-.03 1.84-.07l-.02-1.01c-.64.08-1.26.12-1.87.13-1.2.02-2.28.3-3.25.83a5.92 5.92 0 00-3.14 5.36c.03 1.22.42 2.3 1.16 3.24a6.73 6.73 0 002.94 2.13c1.21.48 2.55.7 4.02.68 1.47-.03 2.82-.26 4.07-.69a8.85 8.85 0 003.12-1.77l-.81-.6a7.88 7.88 0 01-2.79 1.49z"/>
    <path fill="#DEE3EF" d="M65.9 127.75c-1.12.8-2.71 1.23-4.8 1.27a6.67 6.67 0 01-3.51-.78 2.65 2.65 0 01-1.44-2.34 2.85 2.85 0 011.01-2.4c.7-.58 1.57-.87 2.6-.89.54 0 1.09 0 1.63.02l-.02-1.05c-.67.05-1.22.09-1.65.1a5.08 5.08 0 00-3.3 1.16 3.71 3.71 0 00-1.3 3.08c.03 1.3.61 2.31 1.76 3.04a7.45 7.45 0 004.25 1.06c2.42-.05 4.29-.6 5.6-1.68l-.83-.6z"/>
    <path fill="#DEE3EF" d="M64.25 126.53c-.6.3-1.67.47-3.19.5-1.88.03-2.84-.35-2.85-1.17-.02-.47.15-.81.5-1.03.35-.22.8-.33 1.36-.34.59-.01 1.04 0 1.36.06l-.02-1-1.37.01c-.84.02-1.53.21-2.08.58-.54.38-.8.96-.78 1.74.01.74.39 1.29 1.12 1.64.72.36 1.65.53 2.79.5 1.76-.03 3.1-.33 4-.9l-.84-.59zM61.23 110.11l.02 1 6.27-.11-.02-1-6.27.11zM61.27 112.1l.03 1 6.27-.11-.02-1-6.28.11zM61.32 114.1l.02.99 6.28-.11-.03-1-6.27.11zM67.07 115.97l-1.03.02.2 8.39 1.02-.02-.2-8.4zM65.01 116l-1.03.02.2 8.4 1.03-.02-.2-8.4z"/>
    <path fill="#DEE3EF" d="M62.95 116.04l-1.03.02.2 8.4 1.03-.03-.2-8.39z"/>
  </g>
  <defs>
    <clipPath id="clip0">
      <path fill="#fff" d="M0 0h125.2v154H0z"/>
    </clipPath>
  </defs>
</svg>