<svg xmlns="http://www.w3.org/2000/svg" fill="none" viewBox="0 0 279 209">
    <path fill="#D0D0E6" fill-rule="evenodd" d="M143.13 25.79l-2.53 6.68-1.62 4.29c-.2.5-.3 1.03-.67 1.38-.87.83-2.44 1.35-3.5 1.93l-2.1 1.17c-.36.2-1.17.46-1.42.8-.28.36-.15 1.04-.15 1.55v12.68l10.9-1.36-14.52 16.73c-1.2 1.37-2.64 2.7-3.53 4.3-1.9 3.4-3.74 6.83-5.61 10.25l-5.22 9.54 15.66-.67c4.05-.17 8.21.09 12.12-1.06l9.66-2.84c.43-.12 1.76-.27 2.07-.61.28-.32.27-1.54.35-1.95 1.52-7.8 3.46-16.4 7.9-23.12 3.18-4.81 7.47-9.03 11.4-13.23 1.53-1.64 3.1-3.26 4.57-4.94.38-.44.93-.93 1.18-1.45.16-.34.39-.99.28-1.29-.04-.13-1.05-.6-1.2-.7-1.02-.65-2.04-1.32-3.05-1.99-2.86-1.88-5.72-3.76-8.6-5.61-2.24-1.45-4.48-2.98-6.84-4.22-2.45-1.29-5.16-2.2-7.72-3.21-2.6-1.03-5.2-2.05-7.81-3.05z" clip-rule="evenodd"/>
    <path fill="#8D8DAA" fill-rule="evenodd" d="M231.3 144.87c-1.25 1.17-3.52 2.75-5.32 2.03-.9-.36-1.67-1.15-2.5-1.66-.96-.6-1.86-1.2-2.68-2-1.64-1.59-2.87-3.91-4.8-5.16-.65-.42-1.91-.5-2.36-1.18-.2-.3-.22-.75-.18-1.1.08-.75.48-.7-.2-1.25h1.05c.02-.4-.38-.44-.68-.39.14-.64.28-3.15-.89-2.01-1.02.99-.5 2.62-1.23 3.69-.55.82-2 .16-2.2-.75-.1-.4.35-1.03.4-1.43.12-.88-.27-1.63-.84-2.3-1.25.83-.54 2.56-1.25 3.65-.65 1-2.09.53-3.07.36-1.18-.21-2.51 0-3.64-.28-1.7-.42-1.06-2.41-1.23-3.7-.18-1.38-1.58-3.3-1.16-4.7.45-1.49 3.08-1.8 4.34-2.17 2.88-.83 6.99-.99 9.13-3.31 1.7 1.9 3.07 4.07 4.85 5.89 1.93 1.97 3.99 3.79 5.84 5.84 1.93 2.13 3.92 4.23 5.77 6.42.81.96 1.52 2 2.36 2.93.75.83 1.53 1.6.48 2.58zM145.75 108c.89-.47 1-.17 1 .8-.26-.47-.5-.6-1-.8zm-7.5 18.8v-1.7c.86-.02.33 1.44 0 1.7zm-.2 2.55c0-.76-.03-1.48.2-2.21.1.8.33 1.5-.2 2.2zm3.66 51.87c.78.08 2-.46 2.65.15.68.63.62 2.47.78 3.32.27 1.4.5 2.82.73 4.23.14.93.32 1.87-.73 2.23-1.55.52-3.77-.23-5.38-.3-3.2-.13-6.39-.31-9.59-.38a74.8 74.8 0 00-9.29.3c-1.39.15-2.75.41-4.13.64-.73.13-2.68.64-3.33.03-1.24-1.16.81-3.84 1.7-4.6a17.04 17.04 0 016.02-3.04c1.1-.33 2.94-1.25 3.8-.22.67.79.64 1.84 1.59 2.44 2.2 1.38.91-2.6-.46-3.08.92-2.16 2.69.9 3.42 1.63.26.26 1.1 1.12 1.47.68.28-.32-.27-1.48-.38-1.8-.15-.48-.54-1.2-.43-1.72.2-.95 1.53-1.2 2.32-1.28 1.22-.12 2.43.27 3.64.4 1.86.2 3.74.2 5.6.37zM129.4 92.6c-2.43.19-4.86-.18-7.28.12-2.29.29-4.44 1.13-6.6 1.9a90.82 90.82 0 0112.4-20.75c2.52-3.19 5.23-6.36 7.95-9.37 1.27-1.4 2.57-2.77 3.88-4.13 1.17-1.22 2-3.29 3.4-4.2 1.2-.77 3.28-.22 4.6-.17 1.5.05 3.32.19 4.78-.3 1.06-.37 1.35-1.33.02-1.36-1.56-.04-3.1.12-4.67-.02-4.1-.38-8.05-1-12.18-.65-.94.08-2.19.48-3.12.36-.66-.08-.22.25-.69-.28-.17-.2-.39-.69-.44-.96-.3-1.53.54-3.71.74-5.25.19-1.42.02-2.98.37-4.37.32-1.26 1.28-1.43 2.47-1.56 3.25-.37 6.57-.57 9.84-.85 7.45-.63 15.14-1.59 22.54-.02 2.68.57 5.94 1.44 8.32 2.84.75.44 1.5.96 1.23 1.86-.28.94-1.66 1.94-2.34 2.56-5.06 4.59-9.95 9.26-13.5 15.14-4.53 7.5-7.13 15.6-8.65 24.2-.33 1.85-.64 2.82-2.54 3.36-2.04.57-4.02.94-6.14 1.11-4.8.4-9.6.4-14.4.79zM131 42.9c-.37 2.74-.86 5.46-.91 8.21-.02 1.04-.12 1.56-1.23 1.8-1.3.27-2.63.47-3.94.76a231.03 231.03 0 00-18.72 4.94c-6.02 1.84-11.93 3.91-18.08 5.27-2.65.59-5.74.98-8.15 2.28-2.6 1.4-2.25 3.69-2.49 6.2-.3 3.37-1.3 6.62-1.66 9.98-.16 1.6-.32 3.22-.3 4.84.03 1.38.23 2.9-.7 4.06-1.86-2.48-2.74-5.6-3.1-8.65-.19-1.48-.12-2.97-.17-4.46-.04-1.2-.01-3.1-.8-4.1-1.69-2.17-3.9 6.53-4.1 7.46-.36 1.57-.65 3.15-1 4.71-.15.7-.35 3.21-1.28 3.46-1.93.53-1.5-4.88-1.54-5.7-.06-1.67-.1-3.34-.06-5 .03-1.2.26-2.5.12-3.7-.34-2.96-2 .15-2.47 1.25-1.18 2.77-1.71 5.74-2.77 8.56-.18.47-.59 2.04-1.24 2.07-.73.04-.73-1.6-.77-2.07-.24-2.76-1.06-5.5-.81-8.29.25-2.81 1.23-5.7 2.63-8.15 2.96-5.18 8.3-8.15 13.4-10.86 5.86-3.1 12.04-5.55 18.35-7.54 7.58-2.4 15.37-4.34 23.21-5.72 3.99-.7 8.04-1.2 12.07-1.6 1.41-.15 2.83-.23 4.22-.5.53-.1 2.44-.58 2.3.5zm4.08-8.83c-2 .01-4.05-.96-6-1.36-2.31-.47-4.58-1.16-6.89-1.66-4.53-.97-9.07-1.92-13.6-2.92-1.96-.43-3.94-.8-5.9-1.27-2.09-.5-4.35-1.05-6.5-.52-3.25.81-4.62 4.36-5.81 7.14-.85 1.95-1.5 4.14-2.82 5.84-.47.6-1.14 1.33-1.98 1.13-1.58-.36-1.33-2.45-1.13-3.6.3-1.67.7-3.32 1.03-4.99.14-.67 1.17-5.06-.67-4.38-1.37.5-2.09 3.83-2.6 5.02-.39.88-.8 1.75-1.23 2.62-.57 1.14-2.21 4.98-4.03 4.48-2.6-.7-.1-7.53.34-8.97.24-.78 2.88-6.77.65-6.28-.95.2-1.87 1.97-2.36 2.7-.85 1.3-1.71 2.6-2.52 3.92-.83 1.37-1.25 2.92-2.08 4.27-.43.7-1.32 1.65-2.18 1-1.35-1.03-.55-4.58-.31-5.92.44-2.5 1.53-5.06 3.02-7.1 2.25-3.06 6.5-4.05 10.06-4.65 4.6-.77 9.27-.56 13.9-.1 5.2.5 10.31 1.06 15.44 2.1 5.17 1.06 10.33 2.1 15.42 3.5 2.4.66 4.83 1.24 7.19 2.01 2.51.82 4.96 1.84 7.54 2.43l-2.72 6.79a4.52 4.52 0 00-3.26-1.23zm44.5 6.23c.8-.43 1.67-.64 1.96-1.6.26-.85-.18-1.81-.39-2.63a14.8 14.8 0 01-.22-6.95c.5.75 2.35 3.67 3.48 1.9.68-1.06-1.14-2.59-1.67-3.34 1.16-.72 2.84-2.65 4.18-1.49.88.76 1.24 1.49 2.42 1.85 1.42.45 2.77.35 4.22.22 1.02-.08 1.27-.22 1.66.56.32.62.48 1.38.66 2.04.36 1.3 1.2 3.88.2 5.1-.86 1.07-4.21.15-4.68 1.54-.25.75.96.78 1.43 1.15.57.46 1.04 1.2 1.35 1.85.24.49.59 1.29.2 1.78-.55.69-1.56.17-2-.33-.57-.66-.76-1.57-1.25-2.29-.89-1.32-.94-.27-1.18.68-.25.99-.85.92-1.76 1.05-1.6.22-3.21.53-4.77.96a18 18 0 00-2.33.83c-.5.2-1.34.84-1.87.85-.99.01-1.67-1.63-2.18-2.32l2.54-1.4zM232.45 141c-2.46-2.95-4.59-6.15-7.01-9.13-2.4-2.93-5.16-5.5-7.85-8.15-1.27-1.25-2.48-2.63-3.88-3.74-1.04-.83-1.84-.84-3.1-.47a77.1 77.1 0 00-10.57 3.85c-3.15 1.45-6 3.31-9.42 4.12-3.48.83-7.1 1.1-10.66.89-3.66-.21-7.1-.97-10.59-2.09-3.29-1.06-6.72-1.98-9.54-4.08-2.95-2.2-5.24-5.36-7.35-8.33a25.87 25.87 0 01-2.85-4.8c-.63-1.47-1.04-3.22-2.16-4.43-.28.39-.62.72-.76 1.18-.06.21.31.2.27.37-.07.31-.49.63-.73.8-.86.6-.87.12-.64 1.26.13.67-.12 2.17-1.2 1.68.4.47-.24 1.08-.45 1.47a.5.5 0 00-.53-.17c.4.79.16.81-.22 1.44-.07.11-.32.71-.28.66-.4.56-.85.7-1.08 1.4-.19.57-.14 1.2-.35 1.77l-.76-1.05c.05.27.15.68.27.93.08.16.4.52.4.6-.02.32-.41.25-.53.52-.21.52.1.6-.02 1.1-.13.57-.49.34-.66.83-.03.1.22.46.18.67-.06.28-.31.44-.4.7-.24.64-.15 1.1-.48 1.73-.12.23-.3.4-.4.67-.07.24.1.75-.05.96-.72 1.03-.62-.75-.56-1.19.45-3.7 1.92-7.53 3.26-11 .67-1.72 1.32-3.5 2.16-5.15.34-.66.72-1.35 1.28-1.85.7-.65 1.7-.9 2.34-1.62-.1.11.7-.64.57-.4.1-.21-.09-.51-.02-.72.09-.27.25-.32.44-.55.33-.42.72-.63.2-1.16.78-.16 1.14-.41 1.3-1.24.11-.6-.12-.57.28-.97s.6-.09.85-.79c.3-.83.5-1.97.68-2.85.16-.77-.23-1.9.42-2.43.82-.69 1.55-.4 1.4-1.77-.14-1.35.28-2.16.7-3.43.84-2.53 1.16-5.21 1.9-7.77 1.56-5.48 4.33-10.41 7.3-15.23 2.75-4.46 6.6-8.25 10.31-11.9 1.02-1 2.02-2.02 2.94-3.12.78-.94 1.14-2.23 1.9-3.12.46-.55 1.31-.78 1.95-1.07 1.07-.48 2.35-1.1 3.55-1.01-.48 1.61-.63 3.5.78 4.71 1.72 1.47 3.28-.06 4.85-.9 2.87-1.52 6.97-.12 9.47-2.4.6-.55.76-1.42 1.38-1.93.46-.37 1.1-.47 1.62-.75 1.55-.84 2.3-2.39 1.7-4.1-.55-1.56-1.41-2.1.5-2.9 1.55-.64 2.14-1.6 1.44-3.33-.67-1.64-1.9-1.83-3.06-2.9-1.13-1.04.17-2.26 1.01-3.04 1.09-1 1.3-1.91.04-2.96-1.32-1.1-3.2-1.06-4.75-.52a5.8 5.8 0 00-3.62 3.29c-.75 1.68-2.6 1.21-4.11.74-1.44-.45-1.82-1.41-2.76-2.46-1.05-1.16-3.2-.16-4.44.36-3.05 1.3-6.08 3.37-6.2 7.01-.08 2.17.84 4.02 1.32 6.06.44 1.86-2.56 1.72-3.08 3.52-5.54-2.93-11.72-3.82-17.91-4.02-6.58-.22-13.26-.39-19.8.65 1.52-2.64 2.32-5.53 3.64-8.24.38-.78.54-.71 1.38-.47 1.61.45 3.2.95 4.81 1.42 5.87 1.7 11.62 3.76 17.3 6 .54.22 1.77.83 2.26.17.55-.76-.74-1.7-1.26-2.08-2.28-1.68-5.11-2.7-7.67-3.87-5.6-2.56-11.78-3.78-17.62-5.69a250.91 250.91 0 00-38.71-9.3c-3.2-.5-6.43-.58-9.63-.95a36.15 36.15 0 00-8.53.02c-5.25.63-11.34 2-14.3 6.8-2.68 4.32-4.46 9.2-3.78 14.33.2 1.55.86 3.38 2.77 2.98 1.32-.28 2.02-1.4 2.64-2.5.92-1.65 1.84-3.3 2.85-4.92.37 2.42-.99 4.8-.77 7.25.14 1.67 1.06 4.31 3.23 3.84 2.98-.65 4.2-5.3 5.63-7.52.08 1.72-.53 3.4-.34 5.13.18 1.7 1.5 3.3 3.37 3.06 1.76-.22 2.9-2.1 3.65-3.52 1.04-1.97 1.8-4.08 2.8-6.07.96-1.86 2.09-4.08 4.36-4.43 2.03-.3 4.35.41 6.36.71 5.56.83 11 2.24 16.5 3.38 5.9 1.22 11.92 1.96 17.64 3.93-2.01 2.73-7.27 2.14-10.26 2.43-4.52.44-9.1.78-13.6 1.43-4.44.65-8.78 1.8-13.2 2.62-4.37.83-8.75 1.66-12.99 3.07-7.87 2.62-15.88 5.94-22.82 10.51-3.22 2.13-6.1 4.56-8.09 7.92-2 3.38-2.97 7.2-3.33 11.08-.23 2.42.16 4.52.62 6.87.34 1.71.45 4.57 1.82 5.81 2.62 2.39 4.79-7.28 5.27-8.45.35 1.92-.22 12.7 3.97 11.82 1.87-.4 2.3-2.96 2.6-4.5.57-2.82 1.08-5.7 2.05-8.4.62 3.65.88 7.46 2.22 10.95.89 2.32 3.43 6.43 5.2 2.46 1.32-2.97.87-6.39 1.03-9.55.17-3.5 1.18-6.88 1.53-10.35.14-1.34.02-2.86 1.37-3.6 1.16-.62 2.86-.82 4.12-1.18 3.76-1.04 7.53-2 11.27-3.1 3.73-1.1 7.42-2.4 11.1-3.65 3.53-1.2 7.13-1.9 10.7-2.92 2.03-.6 4.03-1.2 6.1-1.7.95-.22 1.92-.4 2.87-.64.71-.17 1.64-.83 2.37-.82.75.01 1.03.65 1.9.7.92.05 1.86-.15 2.78-.22 2.24-.17 4.62-.45 6.86-.14-1.35 1.59-3.16 2.69-4.75 4a44.67 44.67 0 00-5.18 4.97 141.93 141.93 0 00-8.9 11.35 71.57 71.57 0 00-6.84 12.4 53.32 53.32 0 00-2.54 6.62c-.27.93-.49 1.86-.98 2.7-.44.78-1.07 1.45-.55 2.38.37-.22.7-.5 1.03-.78-.38 2.68-1.2 5.27-1.63 7.94-.42 2.63-.4 5.33-.37 7.99.06 5.56.47 11 1.6 16.46 1.14 5.52 2.61 11 4.46 16.32 1.78 5.12 3.57 10.5 6.06 15.33 2.66 5.16 5.82 10.58 9.66 14.95-2.51 1.03-5.7.83-8.37 1.25a18.57 18.57 0 00-7.55 2.78 8.29 8.29 0 00-4.03 6.4c-.24 2.01-.94 4.8 1.71 5.34 1.91.38 4.04-.25 5.95-.4 3.34-.27 6.69-.44 10.04-.59 3.34-.14 6.68-.27 10.02-.38 1.57-.04 3.14-.07 4.72-.13.7-.02 1.13-.03 1.76.17.5.16.46.5 1.02.08.9-.66.7-2.76.68-3.68a25.5 25.5 0 00-.45-4.27c-.16-.83-2.17-6.18-.6-6.4-1.82-2-2.54-4.83-3.36-7.32a97.22 97.22 0 01-2.61-9.44 96.93 96.93 0 01-2.16-20.8 44.61 44.61 0 0022.5 6.85c8.13.26 17.08-.4 24.81-3.11a37.9 37.9 0 009.86-5.12c1.1-.8 2.28-2.59 3.72-2.56 1.72.04 3.65.69 5.37.97 3.27.53 7.54.83 10.31 2.85 1.5 1.1 2.58 2.64 3.93 3.9 1.02.97 2.37 1.49 3.38 2.45 1.1 1.04.66 2.4 2.48 2.48a9.27 9.27 0 004.59-1.28c2.67-1.46 5.5-4.57 3.04-7.53z" clip-rule="evenodd"/>
    <path fill="#D0D0E5" fill-rule="evenodd" d="M206.8 71.58c3.9 2.77 8.39 4.66 12.47 7.16 1.02.62 4.2 1.92 4.17 3.08-.02.68-.97 1.53-1.4 2-.71.8-1.38 1.61-2.05 2.46-3.03 3.9-5.88 7.83-9.17 11.53-.49.56-1.98 3.21-2.46 1.9-.22-.6-.04-1.28-.6-1.83-.3-.3-1.43-.45-1.1-1.07l.66.3c-.17-.5-.16-1.03-.41-1.5-.16-.29-.47-.43-.58-.75-.15-.45.1-.97.06-1.44-.04-.46-.28-.9-.42-1.33-.85-2.6-1.16-5.2-1.6-7.87-.43-2.64-1.1-5.2-1.36-7.87-.28-2.82-.62-5.64-1.07-8.44.8.12 1.43 1 2 1.5.9.78 1.89 1.48 2.86 2.17zm-3.06 27.31a1.55 1.55 0 01-.44-.53c1.92-.95.76.66.44.53zm-1.16-2.02c-.84.23-1.44.28-2.08-.06-.06-.04.01-.29-.1-.34-.1-.04-.24.01-.33-.03-.28-.14-.77.17-.81-.37 1.06-.33 2.1-.93 3.23-1.03 1.56-.14 1.5 1.45.09 1.83zm-3.66-3.14c-1.14.27-2.07.89-3.28.73a6.52 6.52 0 01-3.02-1.42c2.24-.63 4.59-.75 6.83-1.36.73-.2 1.68-.73 2.47-.51.87.23.93 1.05 1.19 1.8-1.4.24-2.8.44-4.19.76zm-7.12-3.15c-1.1.26-2.2.83-3.12-.15-.15-.16-.28 0-.26-.5.02-.5.48-.84.89-1.02.95-.43 2.28-.15 3.28-.22 1.61-.1 3.25-.43 4.84-.69 1.1-.17 2.23-.57 3.36-.5.87.07 1.92.8.65 1.35-1.15.49-2.88.41-4.13.63-1.85.31-3.69.67-5.5 1.1zm-1.07-5.14l.22.22c-.01 0 .42-.35.53-.36.55-.05 1.11-.01 1.67-.04 1.28-.08 2.57-.3 3.82-.54 1.03-.2 2.07-.55 3.12-.46.91.07 1.01.26 1.07 1.14-2.33 0-4.73-.05-7.01.44-1.5.32-3.14 1.28-3.88-.44l.46.04zm1.46-3.72c.58.44 2.15-.3 2.84-.36a14.9 14.9 0 002.19-.35c.65-.17 2.78-1 3.28-.2.76 1.2-2.32 1.43-2.8 1.5-2.05.24-4.17.47-6.16 1l.65-1.6zm2.8-4.13c.15.57 4.78-1.5 4.86 0 .06 1.15-4.57 1.73-5.4 1.63.19-.53.7-1.01.54-1.63zm1.56-3.52c.1-1.14.25-1.13 1.16-1.24.69-.08 1.64-.48 1.46.75-.15 1.06-2.72 1.63-2.62.49zm1.65-3.9c.22-.6.71.2.72.52.03.82-.6.64-1.2.64.17-.38.33-.77.48-1.16zm7.6-4.56c-.12-.15-.8-.2-1-.28-.48-.18-.41-.55-1.03-.18-.03-.03.03-.31 0-.32-.02-.01-.45-.17-.6-.26a7.8 7.8 0 01-.95-.7c-.33-.3-.66-.71-1.04-.94-.16-.1-.29-.24-.48-.27-.5-.07-.36.27-.8.34-.26.05-.46-.27-.8-.13-.3.11-.48.54-.62.8-.5.91-.87 1.9-1.35 2.83-2.46 4.76-5.26 9.33-7.64 14.13-1.15 2.31-2.34 4.64-3.15 7.1-.58 1.77-1.9 4.36-.77 6.13.83 1.29 2.47 1.84 3.79 2.47 1.97.93 3.8 2.16 5.8 3.06 2.38 1.09 4.7 2.22 7.02 3.43.99.51 1.88 1.25 2.87 1.74.6.3 1.54-.2 1.73.48.76-.92 1.99-.3 2.86-.95.52-.38.9-1.13 1.33-1.6.64-.7 1.34-1.35 2-2.04 2.6-2.73 5.02-5.58 7.4-8.51 2.26-2.8 4.91-5.46 6.83-8.53.76-1.21.9-2.5.4-3.84-.37-.98-1.25-2.46-2.52-1.81.48-.8-1.36-1.64-1.92-1.8-.01 0-.12.61-.28.6a5 5 0 00-.7-1.53 22.6 22.6 0 00-2.26-1.55c-.69-.39-1.41-.58-2.07-1.02-.8-.53-1.55-1.16-2.35-1.68-.78-.51-1.65-1.11-2.51-1.46-.75-.3-1.42-.36-2.1-.86a12.3 12.3 0 00-2.51-1.45c-.83-.37-1.98-.69-2.57-1.4zM92.56 139.15l.45-1.08c.2.63.25.94-.45 1.08zm.2 1.65c-.33.06-.2-.98-.2-1.16.57.33.1.71.2 1.16zm-.51-2.99l.84-.5c-.4.73-.24.28-.08.76a.7.7 0 01-.76-.26zm-1.67 5.68c-1.06 3.83-4.41 6.84-7.96 8.4-2.03.9-4.04 1.13-6.23 1.03-.85-.04-1.85-.31-2.67-.26-.62.04-.6.06-1.12.6-.23-.43-.06-.72-.52-.97-.58-.3-.82.05-1.1.47-.38-.38-.53-.58-1.01-.81l-.45-.01c-.09-.03-.6-.36-.77-.42-.67-.25-1.44-.36-2.06-.72-.54-.31-.99-1.2-1.6-.52 0-1.13-1.53-1.6-2.25-2.2-1.12-.92-2.01-2.3-2.57-3.62-.6-1.42-.8-2.78-1.07-4.24-.2-1.01-1.47-2.49-.7-3.52.18.43.1.88.4 1.27.27-.53.42-1.11.54-1.69.06-.28.41-1.1.37-1.35-.08-.5-.7-.53-.36-1.14.72.77 1.3-.59.76-1.13-.27.3-.37.64-.5 1.01-.7-1.42 1.25-.96.82-2.24.71-.14 1.12-.31 1.4-1.01.3-.78.07-.95.75-1.47.24-.17.9-.43 1.02-.72.24-.56-.36-.73.16-1.26.18.31.87.92 1.24.34.08-.11-.24-.2 0-.46.33-.4.72-.79 1.3-.7-.46-1.15 2.46-1.24 3.2-1.5a7.9 7.9 0 012.19-.52c.79-.06.83-.3 1.5-.77.06.68.22.53.71.66.12-.2.24-.23.36-.07.12.11.27.17.45.16.26.02.57-.02.85-.01.65 0 1.33-.05 1.98-.03.16-.03.32-.09.46-.17l.18.34c.35.04.37.47.8 0 .12.6.47.29.85.45.34.14.4.38.72.54.2.17.43.2.67.07l.7.5c.42.23.93.38 1.39.58l.9.39c0 .36.17.48.48.38.29.23.37.22.64.63a17.4 17.4 0 001.97 2.44 13.7 13.7 0 013.18 13.27zm1.05-15.11c-1.55-2.07-3.74-4.44-5.7-5.74-1-.66-2.4-1.85-3.61-2.2-.3-.08-.6-.1-.88-.18-.22-.07-.33-.29-.58-.33-.18-.03-.2.36-.38.33-.4-.08-.64-.46-.91-.7-.6 1-.91-.7-1.78.45-1.03-1.61-3.45-1.26-5.1-1.18-.48.03-.7.2-1.14.33-.4.12-.44.09-.88.08-1.1 0-2.07.13-3.08.61-1.7.8-3.26 2.06-4.88 3.04a20.21 20.21 0 00-4.8 4.05c-5 5.75-6.33 14.13-2.35 20.79 6.32 10.58 22.62 11.7 31.86 4.53 7.13-5.54 9.85-16.34 4.2-23.88z" clip-rule="evenodd"/>
    <path fill="#8D8DAA" fill-rule="evenodd" d="M169.85 98.62c-.18.42-1.84.28-1.87-.22-.06-.75 2.17-.52 1.87.22zm1.76-.28c.93.08 2.48.71 3.38.33 1.38-.59-.07-1.5-.8-1.76-.76-.27-1.88-.13-2.27-.92-.3-.59.43-2.24-.47-1.97-.94.27-.66 2.64-2.13 1.84-.7-.38-.42-2.7-1.6-1.51-.32.32-.34.92-.77 1.16-.44.25-.98-.01-1.44.01-1.22.06-1.6 1.2-.37 1.64.45.17 2.17.37 1.13 1.12-.65.47-2.11-.52-2.67.3-.78 1.12 1.3 1.14 1.85 1.48.95.57.17 1.9.24 2.84.12 1.44.96 1.14 1.26-.08.26-1.04-.06-2.53 1.5-2.12 2.55.67-1.41 3.9.45 4.73 1.2.52 1.36-2.32 1.45-2.81.34-1.81 1.36-1.4 2.9-1.34 1.8.07 2.24-1.26.33-1.64-.6-.12-1.44.03-1.97-.36-.32-.23-.75-1 0-.94zM105.1 157.47c-1.47-.52-3.9-.4-4.27 1.47-.15.8.15 1.63.7 2.2.62.66 1.63.72 1.57-.43-.03-.8-.8-1.5.54-1.66.84-.1 2.07.52 2.11 1.44.1 2.07-3.5 2.24-4.82 1.88-2.63-.71-1.91-3.46-.1-4.71.46-.33 1.8-.83 1.86-1.5.08-.9-1.03-.7-1.57-.6-3.98.87-4.85 7.54-.69 8.8 1.89.56 4.55-.03 5.69-1.74 1.07-1.6 1.08-4.4-1.03-5.15zM52.3 110.31l-3.73 1.8c-.41-.88-1.1-3.28-2.15-3.59-1.7-.5-.62 2.12-.32 2.72.23.5.79 1.25.66 1.84-.19.79-1.3 1.07-1.88 1.48-1.45 1-1.44 3.12.65 2.23 1.19-.51 2.65-1.92 3.56-.32.42.74 1.41 4.86 2.45 2.16.64-1.67-2.45-3.4-.92-4.81.49-.46 1.06-.5 1.55-.76 1.18-.63.52-1.8.13-2.75zM234.76 50.57c-.74-.27-1.66-.8-2.48-.62-.88.19-1.23 1.07-1.87 1.6-1.73 1.43-2.74-.7-3.7-1.88-.89-1.1-1.99-1.37-3.25-.7-.51.28-2.64 1.52-2.27 2.31.27.57 1.32.06 1.68-.06.78-.28 1.5-.51 2.3-.12 1.5.74 1.88 2.77 3.69 3.09 1.87.33 1.93-1.45 3.26-2.12.9-.45 1.52.35 2.38.19.83-.15 1.2-1.35.26-1.7zM219.67 57.73c.66.14 1.1-1.14 1.5-1.46.7-.54 1.88-.65 2.58-.1 1.37 1.05.9 3.33 2.84 3.93 1.74.53 2.56-1.75 4.02-2.32.85-.33 1.78-.55 1.45-1.74-.23-.82-.9-1.03-1.64-.71-1.26.54-1.69 2.74-3.18 2.78-1.55.04-1.72-2.18-2.38-3.15-1.01-1.48-3.1-1.84-4.28-.43-.36.43-2.17 2.93-.91 3.2zM189.08 32.47c.92.63 2.76.61 3.6-.17.87-.8-.28-.91-.99-.9-.54.03-1.55.3-1.24-.64.27-.82 1.78-.4 1.9-1.31-1.13-.2-2.38-.13-3.21.76-.6.64-.92 1.67-.06 2.26z" clip-rule="evenodd"/>
</svg>
