<svg xmlns="http://www.w3.org/2000/svg" fill="none" viewBox="0 0 293 220">
  <defs/>
  <g fill-rule="evenodd" clip-path="url(#clip0)" clip-rule="evenodd">
    <path fill="#D0D0E5" d="M151.04 96.7c-.32-.47-.9-.71-1.36-1.02.21.47.23.61.02 1.06-.16.35-.27.72-.42 1.07-.11.24-.28.48-.35.73-.08.28-.03.58-.14.86 1.25-.34 2.37-1.13 3.43-1.87-.2-.03-.72-.02-.89-.16-.14-.12-.17-.5-.29-.67zM181.2 92.47c.55.43.55.43.57 1.17-.46-.28-.61-.62-.56-1.17zm-26.48 1.94c-.25.02-.31-.7-.37-.92l.25-.04c.11.13.56.93.12.96zm38 7.48a45.55 45.55 0 012.32-8.7c.3-.8.86-1.67.96-2.5-.9.81-1.64 1.84-2.42 2.77-.75.9-1.53 1.78-2.23 2.7-.29.38-.54.82-.56 1.3-.02.54.28.86.5 1.31.23.47.39 1.05.5 1.56.12.55-.07.82-.26 1.33-.41-.2-.76-.32-1.06-.68-.31-.39-.58-.82-.88-1.22l-1.95-2.6a36.65 36.65 0 01-3.4-5.48c-.99-1.98-1.87-4-2.83-6-.2-.41-.29-.87-.82-.87-.4 0-.74.25-1.12.35-.09.03-.18.04-.28.05a.7.7 0 01-.05.27c-.1.12-.13.08-.27.07-.16-.01-.27-.11-.44-.1-.24.02-.48.18-.7.25v-.55c-.72.37-2.46 1.6-2.84.2-.03.26.04.72-.21.88-.17.11-.38 0-.56.02-.22.03-.42.2-.63.27-.01-.38-.3-.34-.58-.39-.36-.06-.68-.26-1.05-.2s-.64.23-1.01.03c-.25-.13-.49-.32-.74-.46-.25-.15-.3-.25-.4-.5-.13-.29-.1-.22-.4-.14-.62.17-.85-.58-.96-1.08a4.2 4.2 0 01.85-3.55 16.86 16.86 0 013.53-3.36c1.27-.83 2.61-1.86 4.09-2.26-1.18-2.64-2.86-5.1-4.36-7.58-.43.1-.69.33-1.15.26-.36-.06-.34-.03-.48.35-.12.33-.18.38-.5.49-.34.1-.07-.1-.32.16-.1.11-.17.24-.3.34-.51.35-1.17.15-1.72.37-.37.15-.19.34-.38.6-.2.28-.55.14-.84.1-.59-.1-.77.1-.9.66-.09.4-.15.62-.59.71-.25.05-.64-.15-.8.01-.06.06-.04.24-.06.32-.06.14-.15.26-.25.37-.21.23-.5.42-.78.54-.28.12-.56.05-.82.15-.4.16-.3.59-.3.93-.22-.05-.28-.05-.42-.22-.06-.08-.02-.21-.15-.25-.1-.03-.68.33-.76.43-.24.3 0 .72-.06 1.06-.06.35-.34.6-.56.86l-.22-.63c-.1.14-.26.24-.3.42-.03.09.05.21 0 .3-.11.26-.23.1-.44.1-.2.02-.7.16-.62.46.06.2.46.16.41.43-.05.33-.49.11-.66.18-.23.1-.14.29-.22.49-.13.35-.41.38-.7.55-.28.17-.4.37-.52.66-.16.36-.15.27-.5.23-.21-.02-.33.03-.41.23-.07.16.05.36-.01.5-.08.2-.47.4-.6.59-.37.5-.52 1.14-.82 1.68-.13.24-.29.48-.45.7-.22.3-.36.24-.66.4-.48.25-.34.93-.4 1.38-.02.23-.08.44-.25.62-.1.1-.44.22-.38.43.09.25.37-.02.31.37-.04.32-.4.57-.47.89-.06.21.01.42-.04.64-.06.23-.25.41-.34.64-.09.22.06.5-.02.67-.1.2-.42.15-.5.4-.1.29.12.73.16 1.02.03.18.12.38-.03.53-.13.13-.45.1-.31.43.06.15.3.12.32.34.02.17-.18.43-.28.55-.29.3-.83.56-.44.96.06.07.15.03.21.13.08.1.09.3.13.42.1.3.24.57.42.82.69.97 1.82 1.43 2.58 2.3.92-.91 1.86-1.8 2.73-2.78.74-.82 1.45-1.67 2.29-2.4.44-.36.93-.66 1.3-1.11.34-.43.47-.97.73-1.45.52-.94 1.26-1.72 1.81-2.64 1.09.7.63 2.52.32 3.53-.19.62-.46 1.21-.78 1.78-.27.48-.64.95-.77 1.5-.1.44.05.81.3 1.17.37.51.8 1 1.18 1.5l2.81 3.65c.34-.5.9-.17 1.35-.08.66.14 1.35.1 2.02.16.7.06 1.4.18 2.1.3.63.1.21.38.51.73.64-1.15 1.86-.43 2.85-.32.63.06 1.29.03 1.9.1.62.08 1.23.3 1.87.36 1.2.11 2.3.53 3.48.74.62.12 1.25.2 1.88.31.22.04.61.06.74.3.14.27-.16.84-.24 1.08-.12.37-.2.93-.45 1.23-.19.23-.24.1-.48.08-.28-.01-.17.05-.36.27-.24.27-.58.27-.92.3-.15.02-.46-.01-.57.1-.17.14-.03.16-.04.38-.02.4-.58.7-.9.86-.2.1-.43.18-.66.17-.15-.01-.32-.16-.47-.1-.21.09-.2.48-.32.65-.22.31-.52.08-.82.24-.35.18-.55.63-.88.85-.67.44-1.43.48-1.76-.34-.14.28-.45.7-.33.98.1.25.43.43.65.55.65.35 1.29.7 1.9 1.1 1.44.93 2.81 1.94 4.34 2.7 1.5.74 3.08 1.55 4.74 1.88 1.7.33 3.44.12 5.03-.59a2.65 2.65 0 01-.29-1.31 97.34 97.34 0 010-4.58c.07-2.04.3-4.05.65-6.06zM210.71 100.44c-.15-.55-.33-1.12-.36-1.69-.03-.4.13-1.02-.12-1.38-.1-.15-.29-.2-.35-.38-.04-.15.03-.44.01-.6-.05-.42-.22-.82-.37-1.2-.35-.9-.36-1.82-.65-2.72-.16-.5-.46-.91-.63-1.4-.16-.43-.24-.9-.3-1.36-.05-.5-.05-.99-.16-1.48-.12-.45-.25-.9-.35-1.35a25.14 25.14 0 00-.9-3.2c-.14-.4-.25-1.06-.6-1.32-.25-.2-.59-.15-.88-.13-.34.03-.62.04-.84.32-.29.36-.47.75-.8 1.1-.34.34-.76.63-1.06 1-.24.3-.1.4.15.65-.33.04-.6-.05-.85.2-.24.26-.43.68-.59 1-.35.7-.39 1.34-.5 2.1l-.27-.43c-.12.32-.3.66-.63.8-.42.15-.41.1-.41.57 0 .67-.56 1.1-.91 1.6-.2.3-.4.62-.52.94-.17.42-.06.69-.02 1.1.06.64-.55 1.12-.92 1.57-.11.14-.18.2-.24.38-.05.12.02.2-.08.34-.17.24-.53.18-.67.48-.13.28.05.56.08.84.05.44-.22.85-.36 1.25a6.35 6.35 0 00-.38 2.16c0 .13.1.44.02.55-.1.15-.34-.02-.43.14-.2.33.54.44.68.5-.17.1-.4.18-.53.33-.19.2-.07.32-.15.55-.08.25-.38.31-.47.53-.1.23.09.28.18.46.24.46.03 1.14-.07 1.6-.03.2-.02.68-.13.82-.08.1-.25.06-.31.14-.14.17 0 .24.06.44.07.24.06.5 0 .75-.07.24-.22.45-.26.7-.05.25.08.34.17.59.2.53.06 1.2 0 1.75-.09.64.14 1.25-.03 1.84l-.53-.23.16.85.09.41c-.04.19.02.26.18.22.3.09.78-.4 1.03-.54.76-.42 1.58-.73 2.37-1.1.81-.39 1.5-.9 2.25-1.4.77-.5 1.58-.94 2.34-1.47 3.25-2.31 6.78-4.26 10.17-6.37-.95.1-1.12-1.15-1.3-1.82zM214.74 74.13c.5.14.4.58.2.95-.2-.18-.54-.4-.64-.67-.1-.33.14-.37.44-.28zm14.24 12.77c-.03.14-.06.67-.16.75-.09.08-.56-.03-.68-.03-.4-.02-.7.06-1.07.15-.64.16-.75-.24-.76-.84a3.05 3.05 0 01-2.36 1.65c-.47.08-.97.18-1.44.2-.36.02-.76-.01-1.1-.07-.23-.04-.43-.18-.64-.22-.46-.09-.05.25-.38.33-.08.03-.4-.11-.53-.12-.2-.01-.4.02-.61.01-.46-.02-.61-.28-.97-.48-.2-.1-.33-.09-.53-.06-.23.03-.06.11-.32.06-.08-.01-.24-.1-.3-.14-.5-.22-.9-.42-1.28-.8-.28-.3-.63-.48-.91-.76-.1-.1-.16-.23-.25-.34-.11-.13-.12-.1-.27-.2-.16-.11-.29-.18-.4-.36-.16-.31-.16-.74-.18-1.09a5.7 5.7 0 01.67-3.27c.61-1.13 1.12-2.32 1.83-3.39.64-.97 1.45-1.88 2.24-2.73.22-.24.47-.52.74-.7.17-.13.4-.18.57-.31.4-.32.2-.9.2-1.34.13.22.32.55.62.48.2-.05.2-.27.35-.36.1-.06.24-.03.36-.04a57.86 57.86 0 00-1.87-7c-2.1 2.07-4.2 4.16-6.25 6.29-1.06 1.1-2.03 2.27-3.08 3.37-1.1 1.16-2.23 2.3-3.35 3.44.3.3.66.5.86.87.2.35.41.62.67.91.6.68.88 1.68 1.24 2.49.08.16.1.2.08.35-.01.09-.1.17-.1.27-.01.14.06.23.14.33.07.1.3.2.31.33.02.15-.13.26-.18.4-.23.62.52 1.05.77 1.54.13.27.2.54.02.8-.14.22-.47.3-.3.64.11.2.4.09.36.38-.02.15-.32.3-.04.47.23.14.5-.1.39.32-.05.19-.3.38-.23.59.07.2.44.24.59.4.19.2.27.55.3.81.13.91.34 1.73.55 2.62.14.6-.22.61-.75.61.35.5.7 1 1.09 1.5.37.46.47 1.2.64 1.77l.62 2.06c.1.32.16.62.03.94-.14.36-.14.36-.07.74 1.65-.95 3.2-2 4.77-3.08l2.25-1.57a5.3 5.3 0 001.53-1.5c.88-1.45 2.16-2.58 3.33-3.8.6-.63 1.14-1.4 1.87-1.87.7-.46 1.45-.86 2.15-1.32l-.78-1.08z"/>
    <path fill="#D0D0E5" d="M176.74 106.37c.67-.32 1.29-.75 1.94-1.11.57-.31 1.09-.46 1.57-.89.2-.18.4-.25.64-.37.3-.15.53-.41.8-.61-.69-.27-1.36-.69-2.12-.7-.34 0-.65.12-.99.06a2.12 2.12 0 01-.88-.44c-.5-.37-.72-.32-1.26-.02-.12.08-.3.24-.46.24-.25-.01-.21-.17-.32-.34-.1-.16.03-.18-.16-.18-.1 0-.15.15-.28.17-.23.05-.67-.18-.9-.22-.4-.07-.7.01-1.08.04-.4.02-.8-.07-1.17-.2-.34-.12-.68-.28-1.02-.39-.46-.13-.55.04-.97.14-.63.14-1.25-.77-1.83-.29.85 1.25 2.02 2.3 3.1 3.36.59.57 1.17 1.13 1.81 1.64l.88.67.4.3c.23.19.21.24.44.14.3-.14.53-.44.87-.59.32-.14.66-.26.99-.41zM177.16 79.04c.03.56.37 1.02-.12 1.5l-.04-.84c-.02-.3-.16-.6.16-.66zm-.55-2.45c-.08.24-.19.42-.42.55-.33.17-.79-.12-1.02.14-.23.25-.2.85-.5 1.06-.1.06-.21.02-.33.1-.1.08-.1.26-.2.33-.17.13-.31 0-.47.08-.17.08-.2.28-.25.45-.04.18-.04.4-.17.53-.15.17-.5.28-.7.4l-2.02 1.26c.2.2.65.43.7.73.03.2-.1.23.06.4.08.06.35.14.45.19.38.2.76.36 1.18.45.5.1 1 .06 1.5.18.51.12 1.03.22 1.56.2.46 0 .9-.13 1.35-.17.85-.08 1.95 0 2.65-.6a6.05 6.05 0 00-.37-1.67c-.2-.54-.42-1.08-.64-1.62a30.37 30.37 0 00-1.45-3.15c-.11.72-.39-.22-.66-.23-.2 0-.2.25-.25.4zM223.76 84.38c.37.1.67.14 1.02.3.26.12.36.18.59-.02.12-.11.14-.28.3-.36.16-.08.37-.05.54-.06.42-.03.84-.03 1.27-.05l-1.46-1.4c-.08.13-.28.6-.43.64-.05 0-.18-.15-.26-.15-.08 0-.14.03-.2.06-.19.08-.27.26-.47.31-.2.05-.42-.04-.62-.04-.05.18-.2.53-.28.77zM223.16 78.3c.09-.34-.1-.7-.04-1.06l-.12-.18c-.1.2-.16.41-.28.6-.1.17-.28.3-.35.5-.13.33.04.6.2.9.22-.24.51-.42.6-.75zM220.27 79.06c-.3 0-.18.15-.22.37-.03.14-.1.26-.17.38-.16.23-.52.47-.31.79.18.27.19-.07.33.07.16.13-.86 1.18-1.02 1.23-.08.03-.17-.06-.25 0-.07.07.03.67.02.79 0 .32-.03.67.23.9.3.26.8.27 1.17.42.24.1.47.26.73.33.28.07.51-.08.75-.05.17.03.52.32.7.4.24.12.29.13.52.05.13-.05.38-.15.47-.26.13-.17.03-.17.05-.4.03-.42.47-.37.77-.5-.6-.17-.93-.82-1.22-1.34-.13-.23-.4-.51-.47-.77-.09-.33.16-.54.3-.8-.2.07-.97.43-.6 0 .12-.12.84-.34.55-.68-.18-.2-.41.22-.62.17-.23-.04-.51-.44-.71-.57-.24-.16-.71-.53-1-.53zM148.43 91.1c.02-1 .18-2 .47-2.95.6-1.98 1.87-3.7 2.27-5.74.2-.98.14-1.97.33-2.95.2-1.03.19-2.1.22-3.14.04-1.03.08-2.07.06-3.1 0-.37-.1-.89-.01-1.25.08-.3.2-.18.45-.3-.18-.1-.54-.16-.58-.38-.02-.16.13-.33.12-.5 0-.14-.07-.28-.11-.42-.23-.72-.55-1.83-.13-2.53-.25-.04-.35-.12-.58-.01-.25.11-.5.36-.7.53-.44.34-.86.69-1.24 1.08-.72.73-1.32 1.57-1.95 2.39-.62.8-1.27 1.6-1.92 2.4-.5.61-1.3 1.55-1.99.72-.2.28-.34.56-.68.7-.42.16-.6.33-.9.69-.06.07-.25.37-.32.4-.16.06-.07-.05-.2-.13-.2-.12-.28-.2-.35.14-.04.15.05.3-.03.45-.07.15-.29.29-.42.37-.3.18-.66.16-.99.27-.54.18-.89 1.01-1.48.61-.22-.14-.4-.36-.67-.21-.22.11-.25.4-.56.28-.15-.05-.28-.26-.47-.33a1.8 1.8 0 00-.4-.08c-.31-.04-.62-.03-.91-.12-.64-.2-1.08-.78-1.52-1.26-.32-.35-.22-.58-.13-1.03.07-.39.15-.78.25-1.16.19-.76.43-1.5.8-2.2.42-.8 1.04-1.49 1.6-2.2 1.18-1.47 2.29-3.02 3.56-4.4.24-.27.66-.55.61-.95-.05-.43-.54-.22-.84-.14-.82.2-1.57.6-2.34.9-.43.17-1 .5-1.47.28-.43-.2-1.12-.75-.88-1.25.2-.39.4-.67.5-1.1.08-.4.13-.79.22-1.18.19-.93.43-1.84.7-2.75.53-1.72 1.18-3.41 1.75-5.12-2.37.21-4.53.9-6.76 1.7.1.22.3.53.22.78-.1.32-.52.21-.62.43-.13.25.25.4.14.73-.1.27-.37.59-.52.83.73.48.44-.5.96-.57.14.78-.19 1.15-.5 1.8-.26.58.36.53.49.97-.36.05-.6-.1-.76.31-.07.18.03.84-.18.85-.16.02-.1-.27-.24-.3-.15-.03-.56.54-.66.65.43 0 .67.05 1.08.2-.27.27-.53.52-.81.77.25.1.68.13.81.41.12.26-.06.73-.09 1 .11-.16.27-.54.43-.65.22-.13.29 0 .27.3-.02.56-.74.52-.84.96-.1.44.52.13.54.57 0 .25-.28.46-.14.72-.32-.18-.36-.29-.53-.64-.12.45-.39 1.15-.24 1.6.12.38.36.29.08.65-.1.13-.25.24-.25.42-.01.43.6.75.12 1.13-.18.15-.38.16-.47.42-.08.22 0 .51-.06.75-.13.47-.48.83-.82 1.16-.3.3-.59.64-.92.9-.19.14-.25.22-.38.4-.05.08.02.15-.06.23-.08.08-.29.07-.4.1-.37.06-.81.21-.93.62-.45-.34-.9.07-1.34.2-.22.07-.42.1-.62-.02-.33-.18-.31-.21-.7-.15-1.1.15-1.99-.98-2.6-1.75a4.22 4.22 0 01-.8-1.94c-.13-.81-.27-1.62-.34-2.45-.16-1.73-.1-3.43-.04-5.16a40.96 40.96 0 00-5.7 3.83c-1.8 1.38-3.33 3.1-4.95 4.7.42.02.81.17 1.22.18.2 0 .4-.02.6-.1.1-.06.19-.12.27-.19.08-.15.18-.17.31-.08.4-.03.78-.11 1.19-.17.51-.08 1.06.08 1.56.17.94.16 1.94.05 2.85.34.8.26 1.63.63 2.4.96.74.32 1.39 1.02 2.01 1.52.36.29.76.4 1.14.65.37.22.65.72.9 1.06.63.8 1.33 1.56 1.96 2.37.28.36.53.75.7 1.18.08.22.08.47.16.68.07.2.2.3.32.47.39-1.04.76-2.08 1.16-3.11.15-.4.83-2.3 1.37-1.57.46.63.2 1.92.05 2.62-.19.94-.4 1.87-.61 2.8-.42 1.87-.8 3.74-1.33 5.57-.04.12-.1.26-.11.38-.02.22-.1.1.05.24.08.08.25.06.32.15.13.16.09.74.08.94-.02.38-.23.55-.33.89-.09.3.06.6.06.9.01.74-.38 1.55-.5 2.29-.1.46.17 1.2-.48 1.29.16.27-.03.4-.17.6-.18.24-.2.5-.3.79-.1.25-.26.43-.28.68-.03.23.07.45 0 .69-.1.27-.27.3-.5.43-.23.11-.17-.02-.24.2-.04.1 0 .33-.01.45-.1.54-.54.9-.9 1.29-.13.14-.3.47-.47.56-.25.13-.6-.1-.83.02-.2.11-.42.98-.5 1.2l-.45 1.35-1.66 4.98c.27 0 .7-.3.96-.18.3.14.1.54.21.76.08.15.54.13.75.14.36.02.52-.08.84-.18.56-.16 1.26-.1 1.83-.16 1.28-.14 2.6-.18 3.85-.46 1.2-.27 2.36-.72 3.55-1.07-.56-.29-.66-1-.82-1.55-.08-.3-.12-.54-.29-.81-.2-.32-.36-.64-.49-1-.48-1.37-.5-3.07-.34-4.5a18.63 18.63 0 012.98-8.11 21.15 21.15 0 012.63-3.25c1-1.02 2.03-2.14 3.2-2.96.54-.37 1.16-.5 1.63-.94.35-.34.93-.42 1.37-.66a6.2 6.2 0 011.82-.74c.5-.1 1.07-.36 1.6-.3.36.05.23.22.44.38.28.22.18-.09.38-.16.18-.07.29.1.44.15.06.02.36.02.34.01.16.1.14.44.23.6.1.18.24.3.3.5.09.26.03.47-.08.7-.12.24-.3.37-.01.6-.75.5-.29 1.48-.84 2.07-.2.2-.62.49-.62.8.01.34.62.47.3.8-.28.31-.89.17-1.22.44-.33.28-.22.75-.25 1.13-.02.29-.3.64-.19.92.08.18.21.15.22.35 0 .17-.13.38-.17.54l-.38-.16c-.05.21-.16.43-.18.65-.03.27.07.4.13.63.05.24-.07.65-.1.93-.02.33-.06.67-.29.92-.13.15-.32.18-.47.3-.14.1-.18.24-.27.39l.64-.2c-.09.42-.24.58-.51.9l-.14-.7c-.08.24-.22.44-.2.7.01.23.11.45.11.69 0 .45-.33.75-.2 1.2.17.53.2.8.04 1.35-.14.48-.34.95-.38 1.46-.04.56.22 1.05.16 1.63-.02.27-.13.46.16.49.27.02.56-.2.79-.3l3.39-1.64c-.22-.3-.16-.3-.03-.66l.3-.82c.2-.58.41-1.16.63-1.73.4-1.07.94-2.13 1.13-3.27.18-1.02.09-2.04.1-3.07zM79.35 173.49l-1.13-.71.66-.5c.23-.18.34-.35.48 0 .15.38-.03.82-.01 1.2zm-.48-2.72c.53.61-.46.79-.84.87.07-.3.28-1.52.84-.87zm11.52-2.17c-.17-.52-.44-1.97-1.23-1.88-.19.02-.36.21-.58.23-.2.01-.38-.04-.57-.05a3.2 3.2 0 00-1.26.12c-.46.15-.8.37-1.3.4-.36.03-.74 0-1.09.1-.6.17-.56.7-.47 1.23-.1-.11-.22-.2-.3-.34-.08-.15-.08-.32-.2-.46-.26-.26-.56-.14-.87-.11-.36.02-.82-.22-1.16-.08-.15.06-.24.23-.4.3-.14.06-.3.07-.45.1-.34.03-.68.14-.99.14-.43-.01-.8-.04-1.23.08-.4.1-.78.27-1.18.38-.45.12-.9.13-1.36.22-.9.18-1.79.59-2.7.64-.5.02-.96.02-1.44.1-.14.02-.48.02-.6.1-.13.1-.23.47-.3.63-.83 1.7-1.43 3.52-2.08 5.3l-2.06 5.53c-.32.87-.74 1.74-1 2.62-.25.82.71 1.4 1.22 1.9a37.16 37.16 0 003.95 3.58 23.35 23.35 0 004.7 2.53c1.67.74 3.44 1.16 5.25 1.42.93.13 1.86.22 2.8.3.94.07 1.73-.06 2.66-.18-.1-.21-.39-.59-.35-.83 0-.06.14-.18.17-.25.05-.11.04-.22.05-.34.01-.54-.2-1.06.49-1.25l.07.88c.33-.5.12-1.04-.08-1.55l-.7.6c.04-.15.44-1.06.33-1.15-.11-.08-.3.15-.42.04-.1-.1 0-.3-.02-.42-.05-.18-.25-.32-.25-.52 0-.27.35-.47.51-.65.24-.25.33-.43.33-.77 0-.48.22-.45.57-.77.56-.51.6-1.22.3-1.9l.75-.05-.69-1.74c-.22-.57.08-.87.23-1.4l1.02 1c.1-1.09.39-2.19.25-3.29-.04-.34-.1-.32.05-.57.11-.19.27-.33.37-.53.2-.39.25-.82.3-1.25.03-.4.01-.84.12-1.23.09-.29.37-.45.44-.77.11-.57-.78-1.55-.26-1.96.26-.22.6-.01.79-.36.16-.3.22-.7.32-1.03.15-.51.23-.91.04-1.43-.16-.45-.34-.9-.49-1.36zM98.62 142.3c-.13-.3-.34-.35-.65-.41-1.33-.26-2.68-.26-4.02-.38a7.54 7.54 0 01-1.14-.19c-.31-.08-.6-.25-.91-.32-.61-.15-1.22.26-1.83.23-.31-.02-.58-.2-.88-.28-.24-.07-.46-.02-.71 0a11.08 11.08 0 01-3.2-.37c-.38-.1-.96-.21-1.24-.5-.64.98-1.18 2.01-1.64 3.09-.45 1.04-1.05 2.03-1.6 3.03a40.86 40.86 0 00-2.69 6.4c.42-.19.73-.38 1.04.05.3.41.65.28 1.13.35.77.13.85.98 1.02 1.62l.74-.93c.2.22.52.34.69.6.1.16.04.3.1.46.06.15.2.2.32.31.76-.97 1.47.86 1.57 1.49l.28-.73c.14.14.32.27.43.44.06.1.06.3.13.39.1.13.18.07.33.1.24.07.2.05.33.24.43.57 1.06 1 1.42 1.61.44.77 1.06 1.56 1.33 2.4.15.49.22.94.47 1.4.13.23.36.44.48.67.15.29-.11.4-.08.66s.46.52.67.6c.34.12.74.08 1.1.1.45 0 1-.01 1.44-.14.38-.12.35-.32.46-.66.12-.4.34-.79.52-1.17.26-.58.39-.96-.4-1.13.45-.08 1.18-.2 1.04-.8-.07-.3-.33-.49-.29-.8.04-.33.3-.44.53-.61.46-.32.78-.91.95-1.43.09-.29.11-.5.02-.8a5.07 5.07 0 01-.27-1.3l.61.06c-.04-.18-.05-.33-.13-.5-.03-.05-.17-.1-.16-.17.01-.13.2-.13.27-.23.2-.24.27-.8.35-1.1.08-.28.12-.61.28-.86.28-.47.63.19.56-.47-.04-.34-.07-.84-.48-.88-.5-.06-.64.13-.6-.46.04-.42-.08-1.33.38-1.56.21-.1.56-.1.8-.11.3-.03.52.13.78.12.45-.02.42-.65.47-.97.23-1.43.34-2.89.2-4.34-.05-.57-.09-1.28-.32-1.82z"/>
    <path fill="#D0D0E5" d="M110.17 85.81c-.03-1.04-.03-1.04.55-1.44.16.67-.22 1-.55 1.44zm10.52 2.67c.13-.25.64-.18.86-.17-.1.2-.46.72-.56 1.11-.12-.23-.42-.7-.3-.94zm-1.35 7.4c.23-.18.17-.17.28-.39.08-.17.06-.26.24-.37.37-.22.42-.22.52-.7.08-.42.04-1.02.23-1.4.13-.28.56-.3.57-.66.01-.68-1.2-1.02-.98-1.7.08-.2.3-.27.39-.45.06-.1.02-.24.04-.36.04-.25.1-.3.34-.37-.02.11-.02.22.02.3.15.3.77-.07.9-.27.3-.43.03-1.14-.07-1.58a5.3 5.3 0 01-.06-1.67l.79.86c.14-.43.17-.67.57-.94.37-.25.51-.42.75-.8.09-.14.15-.3.33-.35.17-.05.46.14.61.07.1-.05.2-.52.22-.6l.3-.8c-.56-1.43-1.02-2.93-1.86-4.22a12.16 12.16 0 00-3-2.98c-.57-.42-1.14-.85-1.73-1.23-.59-.38-1.23-.51-1.86-.8a6 6 0 00-2.06-.62c-.36-.01-.7.07-1.06.02-.4-.05-.77-.18-1.17-.25 0 2.06-.75 4.14-1.45 6.06-.31.87-.77 1.67-1.1 2.54-.34.86-.67 1.73-1.04 2.59-.75 1.77-1.44 3.61-2.41 5.27-.09.15-.19.26-.13.39.01.03.13.1.17.14.1.1.17.22.24.35.16.29.23.61.35.92.27.7.75 1.4 1.13 2.05.42.75 1 1.41 1.62 2 .3.29.73.55.9.92.15.29.15.63.25.93l.1-.73c.26.55.92.6 1.4.88.61.34 1.14.77 1.8 1.05.65.28 1.33.5 2.03.62.35.06.72.1 1.08.08.36-.01.62-.19.95-.32-1.03-.9-.66-2.44-.07-3.47l.55 1.2c.12-.28.53-.55.34-.89-.1-.2-.25-.15-.28-.38-.02-.18.1-.42.18-.57.08.2.11.4.14.63zM116.32 102.54c-.23-.52-1.19-.64-1.67-.73-.8-.17-1.55-.64-2.27-1.01a7.38 7.38 0 01-1.81-1.23c-.26-.25-.47-.3-.8-.44-.3-.14-.5-.35-.73-.6-.46-.51-1.07-.9-1.42-1.5-.35-.62-.85-1.01-1.28-1.56-.51-.65-.88-1.4-1.32-2.08-.8.86-1.02 2.2-1.5 3.24-.6 1.3-1.18 2.61-1.74 3.93-1.02 2.36-2 4.74-2.88 7.15-.04.1-.21.39-.18.48.03.1.25.2.32.27.2.2.3.44.46.67a11.47 11.47 0 003.56 3.3c.42.24 1.02.72 1.5.68.63-.05 1.1-.1 1.73.05.61.13 1.14.25 1.77.24.25-.01.5-.04.74.05.17.07.29.27.48.27.24.01.38-.21.6-.3.2-.06.4-.07.6-.06.3.01.99.28 1.22.05.26-.25.16-.96.64-1.06.36-.07 1.08.59 1.37.77-.12-.38-.56-1.12-.32-1.52.1-.17.24-.2.45-.16.23.05.25.22.44.32 1.02.58.93-2.16.9-2.58l-.78-.04c0 .24.07.78-.09.88-.13.08-.61 0-.78 0 .36.33.52.62-.01.91a.58.58 0 01-.86-.47c-.04-.47.7-.54.56-1-.18-.63-.73.43-.83.6a1.53 1.53 0 01.3-1.46c.44-.5.93-.53 1.54-.37.05-.26.19-.44.25-.67.09-.28-.04-.21-.16-.46-.2-.39.2-.53.27-.87.05-.2-.03-.38-.13-.55-.11-.19-.32-.31-.01-.42.23-.07.51.15.73-.05.24-.22.15-.68.28-.95.2-.41.42-.16.73-.04.24.09.31.08.34-.19.02-.13 0-.26-.1-.35-.17-.15-.4-.05-.58-.1-.25-.07-.27-.22-.36-.45.44-.04.44.1.84.27.32.13.67.11.98 0-.22-.09-.49-.1-.68-.24-.25-.18-.2-.38-.3-.62zM143.7 87.65c.44-.8.84-1.62 1.23-2.45.23-.5.75-1.2.14-1.6-.41-.29-1.16-.68-1.68-.47-.44.18-.68 1.22-1.29.54-.11.32-.49.26-.71.44-.17.12-.15.25-.25.41-.11.17-.29.29-.42.43-.11-.22-.23-.4-.39-.6-.14.23-.1.37-.18.6-.05.14-.08.23-.22.28-.33.13-.65-.27-.81-.5.1.35.15.75-.09 1.05-.18.23-.47.27-.64.52-.2.27-.2.47-.55.58-.06.02-.3.08-.37.08s-.1-.13-.14-.13c-.1 0-.28.13-.38.18.22.27.13.38-.1.55-.28.22-.26.24-.4.56-.06.16-.14.3-.3.38-.15.09-.35.02-.48.1-.26.19-.23.65-.43.88-.28.3-.62.52-.88.86-.25.35-.46.73-.65 1.11-.38.75-.89 1.44-.94 2.28-.02.35 0 .81-.15 1.13-.16.33-.51.46-.65.84a5.3 5.3 0 00-.22 1.06c-.05.4.2.71.03 1.1-.17.38-.2.65-.24 1.07-.03.39-.33.65-.14.98.18.32.36.55.41.94.06.41 0 .56-.37.74.22.37.46.66.58 1.08.11.4.27.75.52 1.1.5.66 1.15 1 1.14 1.93l6.88-2.3c-.88-.17-.43-1.72-.37-2.3.1-1.07.22-2.14.37-3.2.13-.9.4-1.79.53-2.7.08-.47.15-.94.27-1.4.1-.4.33-.79.42-1.18.2-.9.34-1.73.7-2.58.36-.82.8-1.6 1.23-2.39zM76.84 166.9c.18-.13.35-.1.56-.13a8.54 8.54 0 001.54-.33c.64-.19 1.31-.3 1.96-.41.63-.1 1.26-.08 1.87-.27.6-.18 1.1-.35 1.74-.38.7-.02 1.11-.35 1.69.24.51-.72 1.26-.72 2.08-.83.29-.04.63 0 .7-.35.06-.33-.2-.77-.34-1.03-.76-1.41-1.4-2.9-2.4-4.16a13.47 13.47 0 00-3.64-3.37c-.75-.41-1.62-.64-2.42-.96-.87-.34-1.71-.72-2.57-1.1-.44.48-.48 1.06-.7 1.66-.2.57-.56 1.06-.75 1.63-.38 1.14-.7 2.28-1.18 3.39-1 2.35-1.97 4.69-2.87 7.08 1.43-.22 2.82-.36 4.26-.45.28-.02.27-.1.47-.23zM152.5 79.13c.42.05.9.15 1.16.5a31.35 31.35 0 013.84-4.41 56.1 56.1 0 014.19-3.85 54.91 54.91 0 019.7-6.07c-1.08-1.25-2.14-2.51-3.23-3.76-1.02-1.15-2.22-2.13-3.4-3.1-.1.96-.27 1.95-.26 2.92 0 .98.14 1.96.15 2.94a9.1 9.1 0 01-.22 2.41c-.15.6-.5 1.47-1.16 1.66-.9.26-2.4-.18-3.06-.8-.58-.54-.88-1.35-1.34-1.98-.3-.43-.63-.61-1.16-.44-.78.25-1.54.72-2.28 1.1-.83.4-1.66.83-2.5 1.25.06.04.4.22.41.3 0 .02-.19.42-.2.5-.01.31.14.61.23.9.1.31.18.63.17.96-.02.35-.2.58-.28.9-.07.34.18.46.3.75.14.3.14.62.09.94-.05.26-.2.53-.2.79 0 .14.12.3.07.44-.04.14-.2.22-.3.32.44.3.53.25.35.74-.13.35-.08.69-.03 1.05.03.19.23.7.1.9-.13.18-.53.04-.72.03.07.37.17.33.34.63.1.2.1.45.09.67-.03.56-.38.62-.84.81zM86.29 138.82c.6.18 1.18.31 1.81.35.55.04 1.11.05 1.62.29.18.08.39.31.59.3.24 0 .17-.16.34-.27.16-.1.28.01.44.06.23.06.47.06.72.07l2.03.05c.6.02 1.2.12 1.8.12h1.93c-.5-.97-.93-1.99-1.72-2.77-.4-.4-.73-.83-1.1-1.25-.38-.4-.85-.7-1.26-1.06-.44-.38-.8-.78-1.3-1.07-.22-.12-.45-.28-.68-.35-.2-.06-.38-.03-.56-.14-.2-.12-.39-.37-.59-.52a6.5 6.5 0 00-.66-.4c-.45-.25-.91-.47-1.35-.75-1.34 2.5-2.55 5-3.65 7.6.48-.38 1-.43 1.59-.26zM121.41 62.7c.13.14.27.29.35.47.1.2.04.4.1.6.07.24.35.34.18.65-.11.2-.39.25-.47.5-.14.42.36.82.55 1.16.12.2.2.42.15.66-.02.14-.15.25-.18.37-.06.23 0 0 .02.23.03.23.13.48.14.72.02.26-.07.54-.02.79.1.54.5 1.3.81 1.76.28.4.5.53.95.36 2.4-.95 2.9-3.56 3.38-5.79.29-1.32.45-2.59.47-3.94.01-1.41.12-2.82.02-4.23-.4.11-.9.15-1.17.5-.15.18-.15.4-.3.57-.19.23-.59.42-.84.61l-3.78 2.83-.53.4c-.18.13-.23.11-.2.3.02.16.28.36.37.47zM138.29 70.56c-.23.3-.66.36-.93.63s-.42.6-.55.95c-.17.45-.35.78-.37 1.28 0 .46-.15.88-.22 1.33-.05.3-.03.4.28.49.42.12.94.11 1.38.07 2.1-.22 3.75-1.85 5.03-3.37 1.46-1.74 2.62-3.7 3.88-5.59-.6-.34-1.26-.59-1.83-.98-.54-.36-1.02-.82-1.55-1.2-.08.22-.08.47-.17.69-.1.24-.25.28-.47.42-.4.25-.72.6-.97.98-.24.36-.36.81-.64 1.13-.26.3-.65.42-.95.65-.44.35-.8.97-1.16 1.4-.29.36-.5.76-.76 1.12zM99.13 89.7c.08.23.25.54.13.77-.22.43-.45-.2-.67-.3.05.37.1.73.19 1.1.06.23.15.48.1.73-.05.27-.27.43-.27.7 0 .26.13.52.17.78-.42-.05-.51-.1-.77.21.1.03.36.05.45.12.12.1.06.05.08.24.04.25 0 .66-.01.92-.01.31-.19.25-.32.47-.1.14-.07.43-.05.59.03.22.22.47.2.7-.04.27-.3.28-.43.49-.16.27-.02.46.06.74.1.38.09.77.14 1.15 1.84-3.71 3.28-7.61 5.34-11.21l.15-.26-.18-.11c-.03-.18-.02-.4-.04-.6-.03-.44-.15-.86-.2-1.3-.07-.48.04-.94 0-1.42-.02-.16-.06-.33-.07-.5 0-.25.14-.43.16-.65.02-.23-.12-.53-.12-.78 0-.2.02-.38.05-.57.07-.5.22-1 .3-1.51.16-1.04.17-2.1.35-3.14-.28.4-.6.8-.87 1.2-.28.41-.45.87-.7 1.29-.21.36-.47.68-.74 1-.23.26-.22.24-.13.56.04.14.09.3.07.45-.1.63-1.04.42-.9 1.1.06.35.33.67.18 1.05-.12.33-.5.5-.65.83-.16.36.05.61.07.97.01.3-.13.55-.34.76-.29.29-.27.48-.35.89-.06.36-.2.71-.38 1.03-.18.31-.4.4-.31.76.07.26.22.5.31.76zM94.75 95.4c.31 1.2.8 2.38 1.47 3.43.11-.62.3-1.2.32-1.84.03-.62.05-1.23.12-1.85.13-1.16.35-2.31.58-3.45.5-2.4.97-4.8 1.48-7.18a583.22 583.22 0 00-3.33 5.34c-.3.48-.83 1.07-.92 1.64-.09.65-.03 1.4 0 2.05.02.64.12 1.25.28 1.86zM105.3 81.05c.01.17.13.35.16.52.04.2.04.4.04.6l.05 1.48c.99-1.37 1.52-2.99 2.4-4.4.4-.62.82-1.22 1.1-1.89.31-.74.6-1.47.96-2.19l.59-1.17c.1-.2.2-.28.1-.46a.52.52 0 00-.27-.2c-.26-.05-.4.25-.6.35-.29.14-.64.1-.93.2-.67.22-1.31.64-1.97.91-.2.09-.36.12-.34.37.02.23.24.18 0 .38-.12.1-.29.05-.44.04 0 .48.1.77-.13 1.2-.19.34-.11.6-.13.97-.03.41-.19.84-.35 1.23-.14.36-.36.64-.15 1.01.12.21.37.36.22.6-.13.2-.34.13-.31.45zM102.45 144.79c-.71-.42-.04-.85 0-1.25v1.25zm-1.09-2.42c-.1 0-.47.05-.54.16-.03.05.03.5.03.58 0 .35-.04.7-.02 1.05.02.36.2.7.22 1.04.01.32-.2.5-.29.79-.13.38.04 1.43.47 1.54 0-.1.03-.79.09-.82.2-.1.3.43.36.57.56-.55.73-1.32 1-2.07l.9-2.58-1.12-.1c-.36-.05-.73-.18-1.1-.16zM91.51 166.78c-.31.13-.22.51-.21.85 0 .46.16.83.57 1.1.14-.4.68-1.27.52-1.69-.12-.33-.59-.38-.88-.26z"/>
    <path fill="#D0D0E5" d="M152.5 71.33c.22-.2.54-.32.58-.62.04-.31-.25-.82-.34-1.1l-.23 1.72zM106.33 130.21c-.54 0 .05-1.13.13-1.39.17.3.58 1.4-.13 1.39zm4.5-14.25c.22-.12.62-.27.74-.51.13-.28-.14-.28-.38-.3a3.96 3.96 0 00-.95.02c-.28.06-.4.12-.67-.05-.16-.1-.3-.33-.48-.37-.18-.03-.39.16-.55.23-.55.26-1.13.1-1.71.12-.22.01-.4.06-.6-.03-.27-.12-.33-.29-.65-.26-.52.03-.92.19-1.45.05-.33-.09-.78-.44-1.14-.33-.33.1-.5.62-.77.84-.08-.45-.13-.96-.48-1.3-.39-.38-1.02-.51-1.47-.83-1.01-.7-1.75-1.72-2.52-2.67-.5.75-.85 1.43-1.18 2.26l-.93 2.4c-.63 1.6-1.3 3.19-2 4.77-1.4 3.2-2.98 6.33-4.37 9.54.95.03 1.87.5 2.69.94.21.12.22.16.36.35.06.09.15.3.27.33.08.02.3-.1.41-.09.17.03.28.13.41.23.8.63 1.6 1.3 2.35 1.97.34.31.58.6.82 1 .26.45.54.73.93 1.06.64.52 1 1.43 1.45 2.13.26.4.51.8.7 1.24.18.4.25.86.57 1.17.68.65 1.75.28 2.57.38.33.05.4.14.7 0 0-.1.05-.15.13-.12.1.03.19.07.26.13.22.12.42.26.63.4l.37-.91c-.14 0-.63.06-.71-.15-.07-.17.2-.22.3-.33.12-.12.19-.5.4-.5.19.01.18.17.18.32.39.01.38-.33.45-.62.04-.2.1-.38.16-.58.03-.13.25-.66.2-.78-.14-.28-1.04-.26-.47-.6.18-.11.61-.07.75-.23.11-.12.12-.63.16-.8-.27.02-.59.19-.75-.05-.24-.34.1-.87.28-1.15.22.18.36.37.62.16.27-.22.53-.63.63-.94-.3 0-.25.05-.4-.18-.08-.13-.1-.36-.15-.51-.09-.3-.26-.54.1-.62.23-.05.29 0 .36.22.08.29.05.78.09 1.09.36-.46.72-.94.59-1.56-.23.23-.25.17-.53 0l-.82-.55c.35-.31.9-.01 1.23-.27.24-.17.12-.7.13-.95.02-.3.16-.61.14-.91-.02-.33-.4-.48-.2-.78.14-.2.47-.18.53-.5.06-.31-.26-.5-.5-.64.35-.12 1.03-.24.71-.71-.15-.22-.33-.24-.33-.56 0-.23.15-.48.25-.68.13.3.33 1.02.74 1 .34-.03.65-.34.55-.65-.3-.95-1.17-1.02-2-1.2.15-.58.56-.55.98-.25.25.17.4.32.72.14.33-.19.17-.26.02-.53-.3-.54.12-.86.52-1.17.23-.19.34-.42.54-.62s.53-.24.78-.36c-.3-.15-.58-.3-.92-.2-.22.09-.39.24-.65.1-.57-.29.18-.36.25-.6.05-.14-.1-.42-.05-.61.06-.2.19-.37.3-.55.23-.36.49-.73.35-1.19.28.33.38.4.4.86.02.4.02.81.1 1.22.02-.6.56-.99.65-1.56.03-.17-.11-.6.05-.7.13-.08.4.11.54.11-.1-.54-.1-1.1-.3-1.63-.17-.5-.63-.7-1.02-1.03z"/>
    <path fill="#8D8DAA" d="M259.15 58.58c-.72.15-1.41.39-2.13.52-.86.17-1.72.32-2.58.44-.58.09-1.1.22-1.49.7-.7.9-1.42 2.46-.44 3.42.46.45 1.26.31 1.85.5.66.2 1.27.44 1.96.53 3.2.42 6.4 1.2 9.54 1.97 1.44.35 2.87.84 4.24 1.39.7.28 1.38.6 2.01 1.03.54.37 1.15.72 1.58 1.21-1.71.3-3.64.33-5.36.04-.86-.15-1.73-.11-2.6-.18-.87-.06-1.74-.12-2.61-.2-.85-.07-1.69-.17-2.52-.3a3.4 3.4 0 00-.94-.05c-.19.03-.3.08-.47.05-.14-.04-.29-.15-.43-.2-.64-.2-1.33-.17-2-.2-.5-.03-1.03-.18-1.53-.07-.88.2-1.28 1.43-1.48 2.19a2.9 2.9 0 00.13 1.54c.18.54.5.53.94.78.62.35 1.17.73 1.84 1 .56.24 1.14.44 1.7.68 1.22.54 2.55 1 3.7 1.68.63.37 1.23.74 1.88 1.06a12.66 12.66 0 014.59 3.77c-.38 0-.7.05-1.06-.08-.44-.16-.86-.39-1.31-.53-.86-.27-1.7-.53-2.56-.84-.85-.31-1.72-.62-2.59-.88-.44-.13-.89-.19-1.34-.28-.4-.09-.75-.27-1.13-.42-1.8-.72-3.74-1.07-5.6-1.6-1.82-.5-3.62-1.04-5.48-1.4-.86-.16-1.73-.32-2.6-.44-.85-.12-1.6 0-2.42.22-.87.23-1.66.44-2.49.81-.6.26-1.47.49-1.93.94-.28.27-.46.54-.81.73-.27.15-.56.26-.85.36-.65.24-1.27.55-1.91.8-.41.15-.83.27-1.27.3-.42.03-.56.13-.94.3-.58.3-1.22.43-1.84.62-.61.2-1.31.7-1.98.48-.64-.23-1.06-1.07-1.44-1.58a16.06 16.06 0 01-2.45-4.32c-.6-1.7-1.17-3.42-1.75-5.13l-.91-2.67c-.17-.49-.53-1.02-.14-1.47.45-.53.6-1.36 1.07-1.96.46-.58.97-1.12 1.46-1.69.29-.33.56-.66.82-1.02.2-.29.36-.64.6-.91.2-.25.5-.4.74-.62.25-.24.47-.54.7-.8.6-.7 1.17-1.44 1.81-2.1.53-.55 1.14-1.03 1.68-1.57 1.18-1.16 2.43-2.25 3.65-3.37 1.2-1.09 2.4-2.14 3.56-3.26 1.1-1.04 2.4-1.9 3.62-2.77 1.33-.96 2.61-1.97 4.05-2.78 1.38-.77 2.76-1 4.3-1.23-.16.3-.26.61-.47.88-.3.4-.68.75-1.02 1.12l-2.06 2.22c-1.35 1.44-2.75 2.81-4.06 4.29a9.76 9.76 0 00-2.28 3.89c-.23.8-.34 1.66.15 2.4.37.56.98.52 1.6.47 1.59-.15 3.17-.69 4.74-.97 1.75-.31 3.54-.39 5.31-.58.89-.1 1.76-.34 2.65-.4.4-.03.8.05 1.2.01.4-.03.8-.13 1.18-.2a7.37 7.37 0 012.4-.13c.84.11 1.63.03 2.46-.04 1.75-.15 3.55.04 5.29.23 1.67.18 3.32.38 4.95.78-1.7.44-3.41.88-5.13 1.28-1.75.4-3.56.67-5.27 1.2-.75.22-1.52.25-2.28.41zm-135 36.18c.18-.68.37-1.4.6-2.09.06-.15.15-.28.24-.4-.16.28-.28.54-.39.9l-.45 1.59zm-.38.7zm-.13.33zm.47-.9zm104.4-6.34c-.69.44-1.35.71-1.9 1.31-1.26 1.36-2.62 2.64-3.82 4.03-.49.56-.73 1.26-1.28 1.78-.61.6-1.37 1.05-2.06 1.54-1.55 1.09-3.09 2.26-4.73 3.21-.36.22-.73.44-1.11.63-.25.12-.57.19-.78.37-.21.17-.3.42-.52.58-.17.12-.37.22-.54.33-1.44.91-2.88 1.8-4.33 2.69a147.8 147.8 0 00-4.23 2.63c-.74.48-1.44 1.03-2.18 1.5-.6.4-1.24.73-1.83 1.14-.63.43-1.22.87-1.9 1.2-.67.34-1.36.6-2.03.94-.39.2-.74.43-1.11.65-.25.15-.45.13-.71.22-.77.27-1.47.72-2.25.97-3.27 1.01-6.43-.44-9.28-1.97-1.44-.78-2.75-1.77-4.12-2.65-.6-.38-1.36-.66-1.9-1.1-.28-.23-.39-.47-.71-.65-.3-.16-.56-.32-.83-.52a37.8 37.8 0 01-3.69-3.24c-.63-.64-1.27-1.29-1.89-1.95-.48-.51-.86-1.14-1.31-1.7a180.42 180.42 0 01-3.16-4.03c-.5-.66-1-1.32-1.52-1.98-.33-.44-.84-.87-.96-1.44-.1-.53.2-1.03.45-1.46.38-.65.75-1.3 1-2 .38-1.08.97-3.13-.2-3.9-.43.72-.97 1.36-1.44 2.05-.46.7-.66 1.58-1.22 2.2-.6.65-1.38 1.13-2 1.76-.61.63-1.17 1.32-1.77 1.97-.62.68-1.28 1.33-1.94 1.98-.62.6-1.32 1.1-2.02 1.62-.73.54-1.48 1.03-2.26 1.49-.34.2-.69.44-1.06.58-.39.14-.74.22-1.12.42-1.54.8-3.1 1.57-4.66 2.32-.43.2-.87.48-1.32.6-.17.04-.27 0-.47.06-.2.06-.4.18-.59.26-.8.36-1.63.63-2.46.91-1.73.58-3.5 1.11-5.2 1.75-1.62.6-3.18 1.24-4.83 1.7-1.63.45-3.35.53-5.03.7-.45.04-.98 0-1.41.12-.4.11-.6.2-1.03.16-.75-.06-1.45.08-2.2.2 1.14-2.23 1.73-4.78 2.54-7.14.22-.63.48-1.2.66-1.84.17-.57.4-1.12.68-1.64.34-.63.45-1.36.68-2.04-.18.53-.28 1.1-.45 1.64.24-.45.5-.9.72-1.35.23-.47.23-.76.23-1.27.6.07.63-.55.73-1l.44-2.04c.07-.15.04-.4.08-.58.05-.2.13-.4.2-.59.52-1.5 1.1-2.98 1.5-4.54.42-1.7.8-3.44 1.17-5.16.2-.91.48-1.84.56-2.78.05-.44.28-1.89-.36-2.09-.49-.15-1.01 1.34-1.14 1.67l-.9 2.4c-.26.72-.47 1.45-.76 2.16-.3.71-.4 1.46-.67 2.19-.15.42-.4.74-.57 1.14-.13.3-.17.63-.27.93-.21.64-.54 1.25-.78 1.88-.3.81-.68 1.58-1.02 2.38-.3.72-.48 1.49-.76 2.21-.28.7-.7 1.33-.98 2.03l-.88 2.34c-.62 1.6-1.24 3.18-1.72 4.83-.12.41-.33.82-.43 1.19-.1.33-.25.6-.38.92-.24.6-.34 1.27-.46 1.89l.04-.2c-.25 0-.51.06-.68-.16-.2-.25-.14-.74-.18-1.04-.3.04-.18.17-.15.43l.05.4.12 1.02c.1-.05.3-.37.37-.38.12 0 .25.32.31.48l-.08.18c-.07.15-.15.26-.2.42-.11.3-.2.62-.35.9-.08.14-.16.28-.27.4-.07.1-.33.24-.37.34-.1.23.06.83.04 1.1-.02.37-.07.76-.23 1.09-.07.14-.19.22-.25.34-.09.17-.1.25-.11.47-.07.78-.37 1.5-.64 2.23-.3.82-.54 1.65-.81 2.48-.26.78-.6 1.53-.87 2.3-.31.9-.6 1.82-.9 2.72-.22.68-.56 1.28-.8 1.95-.25.69-.6 1.3-.72 2.01-.13.79-.54 1.58-.84 2.31-.25.62-.77 1.27-.87 1.93-.05.3.03.6-.07.9-.1.26-.26.49-.37.74-.15.35-.04.68-.15 1.03-.09.31-.3.53-.47.8-.3.47-.2 1-.5 1.5-.43.69-.59 1.46-.82 2.24-.11.38-.2.78-.3 1.17-.04.15-.06.46-.14.6-.1.18-.28.11-.37.21-.07.1-.1.38-.13.5-.1.36-.25.71-.4 1.06-.32.75-.68 1.48-.96 2.25l-.86 2.41c-.14.38-.27.77-.42 1.14-.15.38-.3.49-.54.77-.24.28-.34.67-.56.97-.21.28-.36.48-.45.83-.17.65-.3 1.3-.57 1.92-.68 1.57-1.54 3.06-2.23 4.64a93.28 93.28 0 00-2.02 5c-.59 1.58-.96 3.22-1.56 4.8-.6 1.56-1.1 3.14-1.69 4.7-.6 1.64-1.22 3.26-1.76 4.9-.2.6-.33 1.2-.45 1.8.04-.28.07-.54.12-.79-.58.97-1.11 2.02-.86 3.18.16-.22.28-.47.38-.74-.04.14-.08.27-.14.4-.16.34-.31.6-.42.98l-.73 2.54c-.12.4-.22.82-.36 1.22-.12.36-.38.66-.5 1.01-.12.4-.07.87-.17 1.28-.08.36-.2.7-.39 1.02-.14.25-.34.47-.46.73-.13.32-.05.64-.09.98-.05.43-.2.83-.25 1.25-.06.4.13.66.2 1.04.08.4-.08.67-.2 1.04-.1.32-.16.65-.23.97-.03.14-.06.57-.15.66-.07.07-.48.08-.59.1-.38.06-.77.14-1.16.14-.82 0-1.67-.12-2.49-.2a24.35 24.35 0 01-4.91-.96c-1.5-.5-3.03-1.2-4.42-1.95a19.4 19.4 0 01-3.84-2.85c-.64-.58-1.25-1.2-1.86-1.8l-.88-.89c-.24-.23-.55-.45-.57-.8-.03-.41.27-.88.4-1.24.14-.33.26-.66.38-.98l.9-2.4 1.84-4.99c.63-1.67 1.26-3.3 2.01-4.92.72-1.54 1.37-3.1 1.97-4.7.56-1.51 1.23-2.96 1.87-4.44.35-.8.67-1.6.93-2.42.22-.69.39-1.34.72-1.99.22-.41.4-.82.52-1.27.11-.4.18-.73.43-1.05.53-.66.83-1.42 1.1-2.22a36.04 36.04 0 011.9-4.62c.76-1.5 1.6-2.93 2.3-4.46.69-1.54 1.63-2.92 2.28-4.49 1.34-3.22 3.2-6.19 4.55-9.4 1.34-3.17 2.93-6.22 4.3-9.37.72-1.65 1.4-3.3 2.06-4.98l.93-2.4c.3-.71.8-1.26 1-2 .21-.76.55-1.34.91-2.03.37-.7.56-1.55.86-2.3.64-1.62 1.3-3.23 1.99-4.84.7-1.65 1.45-3.27 2.18-4.91.28-.62.43-1.28.72-1.9.14-.3.42-.57.55-.86.06-.13.05-.32.1-.47.06-.2.18-.39.27-.57.74-1.5 1.55-2.95 2.22-4.48.68-1.57 1.38-3.13 1.98-4.73.59-1.59 1.34-3.08 1.85-4.7.24-.76.48-1.54.67-2.32.16-.69.47-1.7.31-2.4-.1-.44-.6-1.32-1.1-.92-.47.37-.75 1.1-1.01 1.61-.39.78-.8 1.55-1.13 2.35-.26.65-.5 1.27-.86 1.86-.88 1.43-1.58 2.93-2.37 4.41-.18.33-.39.61-.63.9-.24.28-.17.41-.27.77-.17.63-.7 1.14-.96 1.74-.36.8-.66 1.54-1.1 2.3-.39.65-.74 1.3-1.06 2-.72 1.56-1.41 3.14-2.11 4.71-.37.84-.73 1.68-1.14 2.5-.18.36-.35.72-.54 1.07-.13.23-.36.42-.47.65-.12.26.02.49-.09.74-.12.3-.25.42-.5.25-.59-.4-.7-1.22-1.01-1.82-.74-1.4-1.44-2.72-1.71-4.3-.16-.88-.1-1.78-.09-2.67 0-.78.47-1.32.88-1.97.97-1.53 1.93-3.06 2.92-4.58.43-.67.8-1.37 1.25-2.03.42-.64 1-1.11 1.46-1.7.26-.34.45-.7.73-1.02.24-.26.46-.54.66-.84.36-.57.61-1.2 1.01-1.75a123.4 123.4 0 012.91-3.89c.54-.68 1.16-1.1 1.82-1.64.65-.53 1.22-1.13 1.82-1.72 1.14-1.12 2.22-2.3 3.5-3.28 1.3-1 2.65-1.96 4.03-2.85.68-.44 1.52-.77 2.07-1.37.22-.25.46-.48.75-.65.27-.16.6-.2.87-.36.76-.42 1.46-1.12 2.16-1.65l2.07-1.6c.3-.22.84-.48 1.06-.77.12-.16.1-.39.24-.56.3-.38.9-.42 1.33-.58.83-.32 1.67-.49 2.53-.66.76-.14 1.5-.47 2.22-.73 1.6-.56 3.26-.9 4.95-1.05-.76 2.24-1.62 4.45-2.2 6.75-.24.93-.28 2.01-.67 2.9-.14.3-.52.6-.33.97.14.26.54.55.79.71.51.34 1.16-.04 1.67-.24.86-.34 1.7-.79 2.62-.95.96-.16 1.76-1.07 2.76-1.06.41.01.75.21 1.06.47.32.27.69.48 1 .76a7.86 7.86 0 002.34 1.5c.3.11.55.05.83.28.2.17.37.42.65.48a41.33 41.33 0 00-3.7 4.37 9 9 0 00-1.25 2.43c-.14.43-.27.75 0 1.16.15.23.39.42.67.37.68-.1 1.28-1.02 1.65-1.52.44-.58.91-1.12 1.37-1.68.94-1.18 1.77-2.42 2.95-3.39.34-.28.7-.61 1.08-.85.31-.19.53-.04.87-.1.86-.15 1.63-.6 2.4-.99.82-.42 1.65-.84 2.48-1.24.44-.22 1.08-.67 1.6-.45.57.24.9 1.14 1.2 1.62.3.46.58.86 1.07 1.12.82.44 2.4.96 3.1.13 1.02-1.18.91-3.1.83-4.54-.06-.89-.16-1.78-.1-2.66.06-.78.16-1.56.23-2.34a28.65 28.65 0 013.97 3.8c.64.76 1.3 1.5 1.94 2.25.33.37.62.7.85 1.13.19.38.46.7.75 1.02.6.64 1 1.5 1.46 2.26.44.72.87 1.46 1.3 2.2a37.28 37.28 0 012.25 4.4c.33.8.78 1.53 1.12 2.33.34.79.67 1.58.99 2.38.19.45.41.92.56 1.4.1.32 0 .74.13 1.04.11.3.4.55.51.87.13.32.2.66.33.98.62 1.56 1.47 3.05 2.17 4.58.72 1.59 1.44 3.18 2.3 4.7.88 1.53 1.98 2.95 3.04 4.36.55.75 1.13 1.48 1.66 2.24.19.27.36.58.61.8.24.21.55.3.83.43.15-.4.37-.68.3-1.14-.06-.39-.2-.77-.32-1.14-.24-.72-.84-1.36-.7-2.16.15-.74.76-1.33 1.22-1.9l1.83-2.21c2.05-2.48 4.24-4.86 6.37-7.29 1.08-1.23 2.14-2.48 3.26-3.68.5-.54 1.09-.98 1.62-1.48.44-.41.73-.93 1.14-1.36.31-.32.68-.55.99-.87l.76-.78 1.67-1.72c1.1-1.16 2.14-2.37 3.23-3.54 2.1-2.26 4.33-4.43 6.53-6.6a63.43 63.43 0 011.61 5.77c.11.47.16.96.33 1.42.16.45.38.88.55 1.33.39.99.69 2.05 1.17 2.99.91 1.8 1.71 3.87 3.03 5.42.65.77 1.55 1.42 2.31 2.08l2.47 2.14c-.74.55-1.48 1.11-2.26 1.61zm-68.04 11.92a.68.68 0 00-.2-.3c.05.03.1.08.16.21.15.27.23.59.33.88-.09-.27-.18-.54-.29-.8zm-19.85 14.22c.56.63 1.16 1.24 1.74 1.87.53.58.95 1.21 1.43 1.84a75.9 75.9 0 003.21 3.92c1.07 1.23 2.23 2.38 3.25 3.65a25.44 25.44 0 012.56 4.06c.36.66.76 1.3 1.24 1.88.23.27.53.5.67.83.16.36.2.8.3 1.18.8 3.4 1.6 6.8 2.38 10.22.37 1.66.62 3.34.98 5 .36 1.67.9 3.3 1.25 4.98.7 3.4 1.18 6.86 1.93 10.26.73 3.3 2 6.45 2.68 9.77.1.47.24.9.13 1.37-.09.39-.16.73-.16 1.14-.02.7-.08 1.25-.49 1.85a7.98 7.98 0 01-3.2 2.79c-.7.31-1.35.74-2.1.91-.36.09-.71.03-1.07.09-.36.05-.66.3-1 .44-1.32.55-3.03.38-4.44.38a10.83 10.83 0 01-4.91-.92c-.2-.03-.23-.12-.1-.26 0-.16.09-.34.1-.5 0-.36-.1-.7-.19-1.04l-.59-2.43c-.76-3.37-1.12-6.78-1.6-10.2-.24-1.76-.59-3.5-.89-5.26-.29-1.68-.46-3.36-.68-5.05l-.68-5.06c-.13-.92-.4-1.82-.51-2.74-.09-.7.1-1.35-.06-2.05-.37-1.64-.39-3.34-.8-4.97-.44-1.68-1.06-3.33-1.64-4.96l-.9-2.54c-.17-.5-.38-1.04-.89-1.28-.28-.13-.57-.12-.82-.31-.32-.25-.59-.58-.87-.86l-1.8-1.82c-2.35-2.35-4.63-4.82-7.23-6.9-1.2-.97-2.32-2.06-3.66-2.85l-4.27-2.57c-.72-.42-1.42-.77-2.2-1.08-.67-.26-.25-.9-.06-1.43.3-.8.56-1.62.81-2.45.19-.62.3-1.42.93-1.76.41-.22.6.04 1 .16.28.09.57.1.87.09.67-.03 1.43-.33 2.09-.22.44.06.66.08 1.1 0 .4-.07.81-.07 1.21-.1.74-.06 1.5-.07 2.23-.2a30.4 30.4 0 004.76-1.18c1.65-.58 3.21-1.38 4.79-2.12.1.73.2 1.47.47 2.15.22.56.57 1.29 1.1 1.58 1.14.64 1.75 1.74 2.6 2.7zm24.02 69.16c.5-.27.6.11.89.52.8 1.12 1.62 2.23 2.44 3.35l2.39 3.25c.74 1.01 1.57 1.98 2.25 3.04a27.2 27.2 0 011.8 3.45c.46 1 1.13 2.04.65 3.15-.45 1.04-1.72 1.47-2.65 1.96-1.17.63-2.1 1.06-3.42.6-2.52-.9-5-2.07-7.38-3.28-2.19-1.1-3.85-2.73-5.66-4.33-.95-.84-1.94-1.61-2.83-2.52-.93-.95-1.81-1.94-2.74-2.88-1.45-1.46-2.98-2.75-2.73-5.02 1.39.47 2.75 1.05 4.19 1.33 1.51.3 3.06.47 4.6.39.67-.03 1.28-.22 1.93-.35.64-.12 1.28.01 1.88-.3.53-.28.85-.6 1.46-.75a4.63 4.63 0 001.65-.7c.42-.3.82-.66 1.28-.9zm-43.71-60.12c.01 0 .03 0 .04.02a.2.2 0 00-.04-.02zm-1.62-.91c.02 0 .03.02.05.03l-.05-.03zm-29.68 80.03a128.15 128.15 0 012.8 5.32c.27.56.52.99.55 1.6-1.3-.15-2.61-.92-3.71-1.6a19.2 19.2 0 01-3.12-2.52A51.5 51.5 0 0083.2 203c-.47-.38-.97-.71-1.49-1.02-.16-.1-.32-.2-.45-.33-.16-.17-.22-.46-.4-.58-.4-.26-1.02.12-1.37.3-.47.22-.92.5-1.31.84-.45.4-.75.9-1.14 1.36-.36.42-.73.83-1.06 1.28a18.64 18.64 0 01-2.48 2.96c-.43.39-.98.7-1.34 1.13-.36.42-.73.8-1.15 1.14-.94.77-1.75 1.54-2.55 2.45-.88 1-1.89 1.9-2.84 2.83-.15-.6.11-1.09.37-1.6.3-.59.52-1.23.77-1.85A43.62 43.62 0 0168.6 208c.63-1.2 1.28-2.38 1.9-3.59.5-1 1.29-2.22 1.05-3.4-.1-.45-.35-1.13-.84-1.28-.49-.16-.98.27-1.37.5a28.53 28.53 0 01-3.6 1.75c-1.23.51-2.47 1.01-3.66 1.63-1.15.6-2.24 1.31-3.39 1.91-.57.3-1.17.51-1.74.82-.54.3-1.07.63-1.6.93a9.75 9.75 0 01-3.4 1.19c.87-1.12 2-1.94 3.1-2.8 1.3-1 2.57-2.01 3.9-2.96 1.2-.85 2.41-1.67 3.58-2.56.55-.41 1.09-.84 1.6-1.28.45-.37.92-.75 1.02-1.35.1-.54-.15-1.16-.6-1.48-.46-.31-1.05-.24-1.56-.17-1.44.21-2.85.65-4.25 1.06-.32.1-.65.25-.97.32-.33.08-.7.04-1.04.06-.63.03-1.25.07-1.87.15-.65.08-1.3.05-1.95.16-.59.1-1 .4-1.6.4-2.65-.07-5.12 1.41-7.76 1.41 1.57-.92 3.15-1.84 4.73-2.74.72-.42 1.47-.8 2.17-1.25.77-.5 1.48-1.08 2.28-1.55 2.86-1.7 6.04-2.93 8.64-5.02.64-.5 1.24-1.05 1.85-1.58.14-.12.32-.34.48-.42.26-.13.18-.16.41.08.25.25.43.57.64.86a13.54 13.54 0 003 3.04c1.33.98 2.87 1.58 4.37 2.27 1.51.7 3 1.44 4.59 1.97 1.6.53 3.28.8 4.95 1 1.76.2 3.4.09 5.16-.13.1 1.32.23 2.43.85 3.63.59 1.12 1.33 2.17 1.96 3.28zm6.63-100.4c.13.02.3.03.41.08-.1-.03-.24-.03-.32-.05l-.1-.04zm.47.75c.05-.12.13-.26.14-.4 0 .14-.08.28-.14.4zm-15.07 22.3c-1.96 1.17-3.72 2.65-5.62 3.9a29.55 29.55 0 01-4.45 2.42c-.44.18-.87.46-1.32.6-.5.14-1 .05-1.5 0-.43-.06-.86-.03-1.21-.31-.65-.52-1.06-1.56-1.45-2.26-.54-1-1.18-2.06-1.57-3.14-.37-1-.85-1.92-1.04-2.97.34-.56.3-1.15.02-1.72-.13-.26-.3-.5-.45-.75-.17-.28-.17-.35-.48-.35l.9 2.8c-.3-.92-.7-1.86-.9-2.8-.18-.83-.25-1.63-.54-2.43-.15-.4-.39-.8-.5-1.2-.1-.35-.1-.72-.14-1.07-.13-.98-.38-1.95-.54-2.93-.3-1.87-.48-3.76-.84-5.61-.37-1.92-.84-3.82-1.26-5.72-.15-.72-.44-1.34.27-1.84.68-.47 1.43-.87 2.15-1.28.67-.4 1.35-.79 2.07-1.09.62-.26 1.2-.5 1.77-.87.34-.23.7-.23 1.1-.35l1.2-.43 2.2-.78c.4-.15 1.23-.68 1.6-.28.2.21.23.64.28.9a125.85 125.85 0 011.15 6.25c.25 1.64.4 3.29.65 4.92.06.4.26.9.22 1.3-.03.3-.23.45-.43.64-.52.5-1 1-1.46 1.55-.5.6-1 1.22-1.54 1.79-.53.55-1 1.04-1.38 1.71-.32.57-.76 1.1-.6 1.77.11.52.26 1.05.89.83.72-.25 1.34-.95 1.9-1.45.55-.48 1.1-.97 1.66-1.44.62-.52 1.32-.95 1.92-1.5.52-.46.97-1 1.46-1.5 1.2-1.2 2.47-2.26 3.73-3.37.59-.5 1.05-1.13 1.58-1.7.52-.55 1.09-1.06 1.63-1.58 1.19-1.15 2.42-2.3 3.53-3.52.53-.59 1.1-1.14 1.63-1.72.22-.24.38-.56.6-.79.2-.22.5-.36.73-.57 1-.9 1.54-2.16 2.52-3.09.26.57.45 1.16.64 1.75.17.55.3 1.2.61 1.69.15.23.4.4.52.63.12.23.08.5.17.74.16.46.5.95.74 1.37a7.78 7.78 0 001.33 1.57l-.13-.07c.3.5.57.73 1.05 1.06l-.05.09c-.24.53-.52 1.03-.72 1.6-.33.96-.83 1.87-1.15 2.85-.17.52-.23 1.07-.48 1.56-.22.44-.5.84-.72 1.29-.5 1.03-.83 2.16-1.22 3.24-.41 1.1-.88 2.18-1.39 3.25-.5 1.06-.96 2.14-1.4 3.23-.2.49-.36 1.04-.68 1.47-.34.46-.83.58-1.35.77a34.84 34.84 0 00-5.91 2.94zM57.1 94c-1.16-.99-2.78-.71-4.2-.72-1.66 0-3.3.32-4.95.43-1.65.11-3.3.2-4.96.16a23.95 23.95 0 01-4.39-.47c-.72-.15-1.41-.22-2.14-.29-.46-.04-.88-.17-1.1-.6-.3-.56-.23-1.42-.25-2.04-.02-.6-.1-1.38.13-1.95.24-.57.77-.85 1.31-1.05l2-.77c2.68-1.03 5.45-2.2 8.35-2.45.8-.07 1.61-.08 2.42-.1.69-.03 1.33-.2 2.02-.27 1.42-.14 2.82-.18 4.23-.48.39-.08.63.13 1.03.19.3.05.62.04.92.02.64-.05 1.25-.13 1.9-.07.74.06 1.5.1 2.25.22.67.1 1.32.28 2 .36.72.08 1.46.12 2.18.28.37.08.92.16 1.13.5.29.47.07 1.36.05 1.87-.04.72-.09 1.44-.08 2.16 0 .78.13 1.54.28 2.3.1.56.34 1.2.21 1.78-.06.31-.3.46-.62.41-.22-.03-.4-.25-.61-.28-.4-.05-.02.25-.25.5-.18.21-.49.16-.74.22-.26.08-.5.2-.76.32-.56.25-1.15.42-1.71.7-1.24.61-2.42 1.34-3.6 2.06-.2-.6-.34-1.49-.74-1.97-.34-.42-.9-.63-1.3-.98zm81.42-37.29c.26-.75.62-1.48.84-2.25.08-.27.08-.66.36-.82.23-.13.65-.04.9-.04h1.35c.23 0 .56-.06.69.18.13.24-.09.7-.09.97 0 .4.1.81.2 1.21.44 1.7.9 3.37 1.42 5.04-.51-.23-.9-.78-1.5-.84-.36-.04-.65.18-.99.24-.29.05-.58.06-.87.13-1.3.3-2.48.98-3.8 1.21.06-.48.08-.92.23-1.39l.41-1.22.85-2.42zm4.29-11.35c.62-.28 1.25-1.08.66-1.74-.31-.36-1.11-.17-1.52-.09-.58.12-2.8 1.57-3.08.59-.18-.65.15-1.63.44-2.2.19-.35.44-.7.73-.98.33-.3.46-.2.85-.16.65.07 1.26-.13 1.69.5.08.13.1.3.27.32.14.02.22-.15.35-.15.22 0 .25.15.33.32.23.45.56 1.33 1.22.96.68-.37.72-1.56.72-2.2 0-1 .07-2 .12-3 .04-.78.11-1.5.69-2.1.54-.55.96-1.33 1.61-1.76.75-.49 1.71-.43 2.56-.5.99-.07 2-.18 2.98-.08 1 .1 1.97.15 2.98.1.99-.04 1.98-.1 2.97-.13.94-.02 1.93.06 2.86-.04.38-.04.88-.18 1.13.2.29.42.26 1.2.34 1.69-1.02-.2-2.7-.67-3.09.78-.12.44.25.83.57 1.09.48.37 1.14.36 1.71.44.32.05.84.04 1.02.36.18.3.09.88.11 1.22.09 1.41.29 2.81.44 4.22.13 1.34.24 2.72.04 4.06-.1.69-.39 1.33-.44 2.03-.03.43.04.91-.35 1.2-.46.33-1.24.33-1.77.45-.7.15-1.4.34-2.1.54-1.1.32-2.43.47-2.83 1.7-.42 1.31-.73 2.67-1.14 3.98-.2.67-.5 1.28-.79 1.91-.11.25-.3.53-.27.81.03.3.23.59.35.85.25-.13.51-.2.72-.4.23-.2.4-.48.59-.72.37-.5.64-.92 1.17-1.25.02.27.08.5-.04.72-.1.16-.3.32-.42.46-.33.42-.64.84-1 1.23-.71.78-1.57 1.42-2.31 2.18-.75.75-1.45 1.64-2.35 2.2-.87.55-1.8 1-2.71 1.49.8-1.82.24-3.64-.7-5.27-.45-.76-.98-1.46-1.48-2.18-.4-.57-1.15-1.34-1.14-2.07.01-.4.28-.73.47-1.05.22-.36.38-.74.56-1.12.35-.77.81-1.58.93-2.42.11-.74-.05-1.76-.55-2.35-.2-.24-.5-.21-.76-.37-.25-.16-.44-.4-.66-.61-.23-.24-.53-.4-.76-.64-.25-.25-.43-.57-.61-.87l-1.31-2.15zm2.74-15.94c.75.02 1.15.44 1.5 1.04-.24.37-.87 1.48-1.38 1.04-.1-.08-.14-.26-.26-.36-.1-.09-.24-.13-.37-.19-.29-.13-.61-.25-.8-.52-.43-.65.86-1.01 1.3-1zm14.64 28.13c.14-.04.55.23.69.3.24.1.54.2.76.37.21.16.3.4.44.62.04 1.64.15 3.28.13 4.92l-.13-4.92c-.1.45-.26.86-.26 1.33 0 .47.07.95.11 1.42l.28 2.67c-.02.52-.04 1.03-.08 1.54l-1.94-2.73c-.59-.8-1.35-.85-2.27-.93l1.8-3.65c.08-.14.35-.9.47-.94zm106.3 2.76c.96-.26 1.95-.64 2.95-.77.95-.12 1.8-.54 2.7-.8.81-.24 1.63-.44 2.42-.72.6-.2 1.26-.42 1.73-.86.5-.47.76-1.19.67-1.86-.1-.79-.69-.88-1.35-1.1a52.3 52.3 0 00-10.29-2.3c-1.8-.23-3.63-.52-5.46-.48-.95.02-1.88.07-2.83.01-.86-.05-1.73.27-2.57.1-.86-.17-1.67.06-2.53.18-.93.12-1.86.16-2.79.2-.84.04-1.74 0-2.56.23-.8.22-1.43.37-2.25.1l2.57-2.85c1.77-1.94 3.6-4.03 4.67-6.46.46-1.04.69-2.54-.08-3.51-.68-.86-2.16-.69-3.11-.54a9.14 9.14 0 00-3.43 1.25c-1.01.62-2.13 1.13-3.04 1.88-.9.73-1.95 1.22-2.86 1.94-.94.74-1.9 1.46-2.84 2.18-2.06 1.57-3.77 3.57-5.72 5.26-1.03.9-2 1.87-2.92 2.89-.44.47-.9.95-1.27 1.48-.31.45-.59.92-.92 1.36-.4.52-.89.95-1.3 1.45-.4.47-.74.95-1.08 1.45l-1.06 1.58c-.19.27-.37.74-.74.7-.53-.08-.82-.53-1.4-.22-.2.1-.31.29-.48.43-.22.2-.48.29-.75.42-.54.27-1 .67-1.48 1.03-.51.37-1.04.69-1.52 1.12-2 1.8-3.83 3.74-5.75 5.62-.47.45-.95.88-1.4 1.35-.36.37-.65.82-1 1.18-.21.22-.47.3-.69.49-.2.17-.37.44-.55.64l-1.27 1.45c-.85.93-1.79 1.74-2.6 2.7-.83 1-1.77 1.9-2.63 2.87-1.79 2.05-3.47 4.15-5.12 6.31-.81 1.08-1.73 2.08-2.51 3.18a23.52 23.52 0 00-1.93 3.33c-.16.32-.36 1.3-.94.95-.2-.12-.35-.48-.48-.69l-.51-.81c-.76-1.2-1.56-2.38-2.15-3.66-1.15-2.46-2.28-4.9-3.22-7.45-.48-1.3-1.02-2.55-1.56-3.81-.54-1.25-.94-2.55-1.47-3.8a61.31 61.31 0 00-3.76-7.2c-1.25-2.14-2.59-4.34-4.32-6.12-.92-.95-1.64-2.03-2.6-2.93l-1.5-1.35c-.35-.33-.65-.83-1.09-1.05-.31-.16-.64-.12-.98-.1-.25 0-.54-.07-.8-.05-.22.02-.31.22-.53.26-.22.04-.37-.06-.54-.18-1.11-.76-2.62-1.1-3.89-1.55.8-.5 1.78-.52 2.68-.73a5.52 5.52 0 002.08-.95c1.36-1.03 1.6-2.67 1.84-4.26.28-1.84.5-3.8.26-5.65-.24-1.81-.5-3.63-.76-5.44-.13-.88-.3-1.73-.56-2.58-.22-.7-.5-1.41-.47-2.15.02-.36.03-.92.3-1.18.2-.2.5-.3.72-.5.5-.44.9-.98 1.22-1.57.25-.49.66-1.2.42-1.76-.26-.61-1.1-.72-1.66-.87-1.67-.43-3.35-.36-5.03-.6-.82-.12-1.66-.35-2.48-.34-.8 0-1.6.02-2.4.01-1.76-.02-3.52-.07-5.26.1-.47.06-.92.1-1.39.12-.37.02-.64.21-.98.27-.21.04-.5-.07-.72-.1a4.1 4.1 0 00-1.07.06c-.74.14-1.32.61-2.05.76-.57.12-1.01.43-1.3.94-.75 1.28-.79 3.06-.85 4.5-.08 1.71.05 3.43-.04 5.13-.02.41-.07.58-.5.54-.62-.06-1.15-.23-1.77-.06-1.18.3-1.92 1.38-2.38 2.44a7.8 7.8 0 00-.65 3.58c.07 1.07.46 2.45 1.64 2.76.63.17 1.26-.1 1.86-.28.56-.18 1.07-.69 1.37.02a16.54 16.54 0 002.22 3.97c-.92-.06-1.84-.15-2.77-.2-.6-.02-1.47-.2-2.05.04-.34.14-.35.38-.6.6-.27.23-.79.13-1.12.12-1-.03-1.91-.21-2.92-.1-.75.07-1.42.44-2.15.58-.9.17-1.8.52-2.64.86-.8.32-1.58.66-2.4.92-.83.26-1.67.53-2.47.9-1.42.65-2.62 1.7-3.9 2.6-.33.23-.69.44-1 .7-.26.22-.42.5-.67.73-.4.36-.86.34-1.28.54-.44.2-.86.58-1.26.85l-1.08.74c-.68.47-1.35 1.02-2.09 1.4-1.37.69-2.44 1.78-3.56 2.82-1.2 1.13-2.52 2.11-3.68 3.28A27.34 27.34 0 00103.3 72c-.97 1.4-1.78 2.9-2.7 4.35-.42.66-.95 1.2-1.44 1.8-.24.3-.47.61-.69.94-.18.3-.31.66-.6.88-.55.42-1.1.67-1.55 1.24-.5.64-.94 1.35-1.36 2.04a74.46 74.46 0 00-2.42 4.26c-.22.42-.22.73-.26 1.2-.03.36-.15.7-.21 1.06-.11.57-.05 1.18-.2 1.75-.1.38-.33.43-.64.64-.28.2-.54.43-.8.67-.5.5-1 .98-1.56 1.42-.56.44-1.15.87-1.65 1.4-.5.55-.96 1.08-1.55 1.56-1.25 1.02-2.43 2.14-3.66 3.2-1.28 1.08-2.44 2.28-3.62 3.47-1.2 1.24-2.5 2.4-3.76 3.58-.1-1.4-.18-2.8-.3-4.2-.13-1.51-.47-2.99-.77-4.47-.26-1.33-.44-2.74-.9-4.02-.3-.88-.9-1.6-1.84-1.81-.46-.1-1.17.11-1.4-.4-.22-.53-.24-1.31-.33-1.87-.4-2.45.4-5.2-.63-7.54-.44-1.02-1.27-1.56-2.25-2-1.29-.56-2.71-.42-4.08-.7-.62-.14-1.13-.48-1.77-.5-.66-.03-1.3-.01-1.96.01-.68.03-1.34-.1-2.02-.1-.58 0-1.05.39-1.63.3-.64-.1-1.17-.27-1.83-.08-.58.17-1.13.22-1.74.23-.74.03-1.48-.05-2.22 0-.69.02-1.34.23-2.01.31-1.43.18-2.8.34-4.2.73-1.38.38-2.7.93-4.04 1.42-2.15.8-4.61 1.41-5.2 3.95-.33 1.4-.4 2.92-.22 4.35.14 1.16.4 2.44 1.08 3.42.73 1.04 1.94 1.36 3.1 1.72 1.32.4 2.67.47 4.03.72 1.4.25 2.8.45 4.24.42 1.42-.04 2.81-.41 4.23-.53 1.46-.13 2.91-.3 4.37-.43.98-.08 2.85-.36 3.34.75.16.36.38.78.1 1.1-.34.37-.64.75-.95 1.17a4.2 4.2 0 00-.85 1.8c-.12.68-.13 1.38-.14 2.07-.04 2.86.69 5.76 1.39 8.52a88.46 88.46 0 002.54 8.54c.96 2.66 1.68 5.42 2.82 8.02.57 1.3 1.32 2.45 2.1 3.63.67.98 1.28 2.18 2.25 2.9.82.6 1.87.9 2.89.81 1.21-.1 2.36-.83 3.43-1.37a50.5 50.5 0 007.22-4.77c1.1-.82 2.1-1.77 3.28-2.5 1.15-.7 2.3-1.35 3.6-1.72-1.08 2.27-2.06 4.58-3.2 6.82-1.13 2.21-2.07 4.5-3.09 6.77-.41.93-1.03 1.73-1.44 2.66l-1.42 3.19c-.86 1.94-1.77 3.87-2.55 5.85-.17.45-.1.99-.32 1.38-.24.4-.49.75-.66 1.18-.38.93-.68 1.86-1.1 2.77-.96 2.02-1.56 4.18-2.47 6.22-.91 2.04-1.74 4.1-2.55 6.18-.4 1.02-.85 2.02-1.22 3.05-.34.95-.67 1.92-1.23 2.77a42.89 42.89 0 00-3.1 5.92 8.42 8.42 0 00-.9 2.98c-.05.97.54 1.74 1.02 2.52-.87.44-1.68 1.01-2.55 1.46-.94.48-1.93.86-2.9 1.25l-2.97 1.2c-.87.37-1.67.8-2.52 1.22-.8.39-1.52.9-2.28 1.36-.81.5-1.64.98-2.46 1.48-1.6.98-3.15 1.97-4.83 2.81l-2.64 1.31c-.72.36-1.5.68-2.03 1.31-.78.95-.71 2.46.03 3.42.48.64 1.68.58 2.4.6.5.01 1-.01 1.5-.11.4-.09.74-.3 1.13-.4.45-.12.95-.1 1.4-.15.45-.06.9-.14 1.34-.23.95-.2 1.9-.43 2.86-.64.93-.2 1.86-.39 2.78-.66.38-.11.78-.33 1.17-.32.42 0 .8.04 1.22-.04.44-.08.86-.2 1.3-.26.41-.05.82.01 1.23-.05.45-.08.88-.28 1.32-.41.43-.13.83-.1 1.27-.1-1.1.86-2.24 1.64-3.35 2.45-1.13.83-2.18 1.74-3.26 2.62-.88.72-1.97 1.4-2.51 2.43a4.3 4.3 0 00-.34 2.75c.22 1.14 1.06 1.28 2.08 1.35 1.32.1 2.34-.47 3.5-1.03a75.84 75.84 0 006.58-3.74c1.05-.66 2.22-1.16 3.34-1.7l1.79-.85c.48-.23 1.12-.68 1.66-.63-1.48 3.06-3.03 6.1-4.33 9.24a13.42 13.42 0 00-1.09 4.11c-.07 1-.02 3 1.23 3.33.56.15 1.07-.23 1.44-.6.54-.52 1.03-1.1 1.54-1.65 1-1.08 2.05-2.1 3.15-3.1s2.21-1.97 3.2-3.09c.95-1.06 2.14-1.87 3.04-2.97.93-1.13 1.76-2.34 2.7-3.47.6-.75 1.1-1.91 2.16-2.08.15.88.9 1.66 1.44 2.38a28.26 28.26 0 004.03 4.19 14.28 14.28 0 004.4 2.82c1.1.42 3.38 1.4 4.24.07.41-.63.2-1.87.04-2.56-.21-.96-.68-1.86-1.1-2.74a97.6 97.6 0 00-2.76-5.26c-.48-.88-.96-1.76-1.48-2.61-.45-.74-1.08-1.45-1.3-2.3-.1-.36-.15-.83-.03-1.19.12-.38.27-.3.61-.35.74-.11.52-1.48.42-2.01-.09-.47-.26-.93-.43-1.38-.15-.38-.47-.9-.45-1.32.02-.39.4-.78.55-1.14.18-.4.3-.83.42-1.26.58-1.95 1.33-3.83 1.81-5.82.48-1.97.99-3.9 1.7-5.8.72-1.99 1.51-3.94 2.17-5.95.65-1.94 1.28-3.88 1.98-5.8 1.42-3.85 2.93-7.68 4.6-11.43 1.64-3.7 3.52-7.3 4.94-11.1.68-1.83 1.36-3.65 2-5.49.67-1.9 1.39-3.78 2.16-5.64.8-1.9 1.44-3.88 2.12-5.82.66-1.92 1.23-3.9 2.05-5.76.21.23.4.4.56.66.15.27.28.53.48.76.38.42.86.71 1.31 1.04.29.2.52.44.85.48h.03l-.19.03 1.25.86a3.6 3.6 0 00-.11-.23c.13.23.27.45.57.5l-.08.01c.2.15.9.85.84.1.03.12-.02.2.03.33a4.27 4.27 0 00.94.92c.55.4 1.15.73 1.69 1.15.15.12.68.73.86.73l1.02.9-.4-1.37.3.99c.1.38.27.52.55.78.51.45 1.01.9 1.53 1.34.96.78 2.06 1.4 3.08 2.08.56.38 1.1.76 1.64 1.17.43.34.96.46 1.4.79.54.41 1.02.95 1.5 1.44.42.44.92.89 1.21 1.43.33.62.34 1.42.44 2.1l.3 2.06c.21 1.42.4 2.83.58 4.25.16 1.4.37 2.78.49 4.18.12 1.42.1 2.83.25 4.25a84.8 84.8 0 001.29 8.5c.6 2.82 1 5.67 1.53 8.5.27 1.45.56 2.9.85 4.35l.43 2.15c.11.59.05 1.18.16 1.77.05.32.13.64.13.97 0 .31-.2.59-.2.87-.02.4.34 1.03.56 1.35.34.48.8.91 1.18 1.35.4.44.55.6.41 1.2-.6 2.57.93 4.72 2.56 6.53 1.79 2 3.58 3.93 5.63 5.66 1.08.9 2.1 1.88 3.12 2.84.99.92 2.05 1.64 3.2 2.34 1.18.7 2.41 1.22 3.63 1.85 1.2.61 2.35 1.2 3.62 1.64 1.21.43 2.44.8 3.6 1.33.91.43 2.07.41 3 .02.62-.27 1.15-.75 1.71-1.13.52-.36 1.05-.7 1.6-1.01.9-.52 1.77-1.13 2.16-2.14.45-1.2.06-2.64-.2-3.85a11.09 11.09 0 00-1.47-3.45c-.69-1.11-1.54-2.08-2.33-3.11-.81-1.07-1.54-2.2-2.4-3.25a36.65 36.65 0 00-2.67-2.96c-.95-.94-1.78-1.98-2.65-2.98-.21-.25-.53-.5-.57-.85-.04-.3.17-.51.27-.77.19-.51.13-1.07.14-1.6 0-.27 0-.53.13-.77.12-.22.34-.3.43-.54.07-.2.05-.47.09-.7.05-.27.18-.47.27-.74.22-.66-.05-1.43-.18-2.08l-.34-1.85c-.24-1.34-.43-2.68-.85-3.98-.85-2.63-1.68-5.25-1.74-8.05-.03-1.4-.42-2.74-.74-4.1l-1.05-4.3c-.67-2.74-1.49-5.45-2.18-8.19-.7-2.73-1.33-5.48-2.15-8.17a54.9 54.9 0 00-3.22-7.84c-.6-1.23-1.25-2.3-2.13-3.35-.9-1.09-1.84-2.16-2.77-3.23a654.34 654.34 0 00-5.67-6.44 26.33 26.33 0 00-3.02-2.97c-1-.8-2.34-1.47-2.66-2.78-.08-.37-.14-.75-.24-1.11-.06-.22-.23-.54-.2-.77.05-.45.9-.63 1.24-.78 1.19-.54 2.39-1.07 3.55-1.66.64-.32 1.21-.72 1.81-1.11.5-.33 1.08-.43 1.64-.6 1.27-.4 2.43-.96 3.6-1.57 1.2-.64 2.4-1.27 3.57-1.98 1.18-.7 2.1-1.58 3.1-2.51.44-.42.76-.2 1.08.25.38.55.8 1.1 1.19 1.64.19.26.35.56.61.71l.03.02-.15-.06c.1.69.61 1.16 1.07 1.63l-.13-.35c.12.33.28.55.49.83.42.55.89 1.04 1.38 1.53l.78.75.3.3c.17.17.27.22.44.3.36.16.44.44.75.66.45.33 1.03.55 1.5.88.39.26.73.8 1.18.9.16.04.28.02.41.15.17.16 0 .16.26.22.14.03.28-.05.42 0 .15.04.27.17.4.26a164.12 164.12 0 012.34 1.74c.99.75 1.9 1.61 2.89 2.36.51.39 1.07.67 1.61 1 .46.28.84.65 1.27.96.51.38 1.11.56 1.64.9.52.33 1.02.68 1.56.98 1.19.65 2.39 1.26 3.64 1.77 1.27.51 2.56.93 3.94 1a9.6 9.6 0 004-.82c1.28-.5 2.53-1.08 3.73-1.73 1.18-.63 2.27-1.38 3.42-2.05a50.96 50.96 0 003.36-2.13c1.04-.72 2.04-1.52 3.17-2.11 1.14-.6 2.15-1.37 3.22-2.07l3.3-2.19c2.28-1.53 4.56-3.09 6.73-4.78a27.03 27.03 0 002.98-2.6c.97-1.03 2.13-1.9 3.2-2.82l3.08-2.99-3.08 3c.5-.1.8-.41 1.2-.72l1.23-.97c.59-.49 1.27-.98 1.2-1.83.26-.24.52-.48.8-.7.45-.36.98-.58 1.46-.9.98-.65 1.82-1.48 2.74-2.2.4-.33.77-.57.84-1.12.06-.6-.02-1.24-.02-1.84 0-.47-.14-1.12.04-1.56.18-.44.77-.63 1.16-.84 1.08-.6 2.14-1.22 3.23-1.8a7.7 7.7 0 013.21-1.09c.53-.04 1.04-.12 1.57-.2.54-.09 1.04.07 1.58.17 1.2.22 2.42.35 3.63.58 1.21.22 2.41.52 3.6.82 1.2.3 2.4.61 3.62.82.63.11 1.27.19 1.88.38.45.15.9.36 1.36.46 1.14.25 2.3.28 3.4.66 1.12.38 2.25.57 3.4.75.61.09 1.22.18 1.81.31.37.08.69.13 1.06.04.75-.19 1.37-.8 1.62-1.54.67-2.03-.63-4.21-1.95-5.66-1.42-1.54-3.2-2.63-4.9-3.82.67-.08 1.34.02 2.02.03.58.01 1.15-.01 1.73.02 1.29.07 2.57-.3 3.86-.33 1.74-.04 3.9-.4 4.35-2.38.42-1.85-1.54-3.52-2.94-4.36-.9-.54-1.81-1.04-2.7-1.61-.93-.61-2.1-.97-3.14-1.38a29.02 29.02 0 00-3.22-1.12c-1.06-.28-2.13-.43-3.14-.84.92-.4 1.92-.5 2.9-.68.99-.18 1.96-.43 2.92-.7z"/>
    <path fill="#8D8DAA" d="M272.4 132.83c-.1.44-.35.66-.78.76-.71.17-1.5.2-2.22.28-1.33.17-2.7.23-4 .55-1.22.3-2.44.73-3.54 1.34.36-1.72.77-3.4.62-5.17-.12-1.3-.15-3.27-1.46-4.02-.3-.18-.79-.11-1.13-.13l-1.32-.07c-.87-.05-1.74-.14-2.6-.22-1.72-.17-3.42-.38-5.12-.63-.28-.04-.78 0-.97-.25-.14-.18-.07-.47-.06-.67.03-.7 0-1.4-.08-2.08-.2-1.52-.61-3.01-1.08-4.47l-.73-2.2c-.11-.34-.38-.83 0-1.08.24-.16.66-.16.94-.23.33-.08.65-.19.97-.3l2.29-.76c2.9-.96 5.82-1.86 8.7-2.85l1.21-.42c.18-.06.48-.21.67-.13.22.1.18.34.34.49.14.12.45.13.63.23.45.27.73.72 1.09 1.09.45.47.96.89 1.41 1.37a25.95 25.95 0 014.3 6.67c.31.64.5 1.31.7 2 .18.64.41 1.28.52 1.95.24 1.56.25 3.16.44 4.73.16 1.31.58 2.9.27 4.22zm-11.54-3.52c0 1.04-.06 2.09-.28 3.1-.24 1.05-.66 2.05-1.04 3.06-.35.94-.64 1.92-1.06 2.84-.4.91-.92 1.74-1.25 2.69-.67 1.93-1.82 3.63-2.63 5.5a57.24 57.24 0 01-2.79 5.56c-.49.86-.94 1.81-1.56 2.59-.31.39-.66.77-1.02 1.11-.31.3-.46.07-.83.14-.55.1-.83.8-1.19 1.17-.67.7-1.36 1.38-2.09 2-.75.65-1.59 1.18-2.36 1.8a13.5 13.5 0 01-2.31 1.54c-1.67.85-3.58 1.89-5.5 1.8-.88-.04-1.36-.62-1.73-1.39-.39-.81-.26-1.79-.2-2.66a6 6 0 01.9-2.86c.55-.87 0-1.42-.54-2.15-1.23-1.63-2.85-2.9-4.34-4.27l-2.29-2.15-1.26-1.2c-.3-.28-.6-.48-.71-.89.84-.45 1.7-.83 2.48-1.4 1.57-1.15 3.01-2.56 4.5-3.82.7-.61 1.27-1.37 1.84-2.1.55-.71 1.19-1.38 1.66-2.15 1.03-1.65 2.2-3.28 3-5.05.41-.88.62-1.78.84-2.72.12-.56.27-1.13.41-1.69.1-.36.12-.99.35-1.29.43-.55 1.77.34 2.27.5.92.3 1.89.44 2.84.58 2.03.32 4.08.59 6.1.98 1.05.2 2.11.43 3.19.53 1.04.1 2.08.05 3.12.05.23 0 .5.03.65-.17.08-.12.03-.26.16-.37.18-.15.42-.07.62-.05.42.05.84.07 1.25.12.19.03.54 0 .7.09.16.1.1.4.1.63zm-29.23 27.88a7.92 7.92 0 00-.6 5.17c.11.5.4 1.08.3 1.58-1.22-.57-2.43-1.19-3.7-1.7-1.08-.45-1.9-1.22-2.79-1.96-.96-.79-1.83-1.67-2.75-2.5-.99-.9-2.02-1.74-3.03-2.6a37.3 37.3 0 01-4.77-5.17c-1.29-1.63-3.14-3.71-3.06-5.92.05-1.03.12-2.2.62-3.11a7.06 7.06 0 011.88-2.13c.68-.49 1.34.74 1.73 1.18.82.93 1.66 1.84 2.49 2.76 1.58 1.76 3.09 3.6 4.8 5.22a84 84 0 005.36 4.73c.93.75 1.95 1.44 2.8 2.28.31.31.91.66 1.12 1.04.22.42-.22.78-.4 1.13zm42.41-24.18c-.26-.03-.25 0-.27-.25-.03-.4.1-.87.14-1.27.2-1.9.1-3.88-.06-5.77-.33-3.72-1.1-7.38-3.04-10.61-.9-1.5-1.91-2.9-3.18-4.1-.59-.54-1.16-1.14-1.8-1.61-.33-.24-.8-.37-1.1-.61-.16-.13-.24-.4-.37-.57-.54-.68-1.15-.86-2-.78-.9.07-1.84.35-2.7.6-1.83.5-3.59 1.37-5.36 2.05-1.79.69-3.55 1.41-5.3 2.16-.77.33-1.7.58-2.37 1.07-.41.3-.53.66-.49 1.15.16 1.74.8 3.46 1.29 5.13.53 1.78.95 3.6 1.09 5.46-1.82-.14-3.62-.27-5.43-.5-.9-.12-1.81-.21-2.72-.34-.46-.06-.68-.23-1.06-.48-.32-.21-.5-.03-.64.3-.73 1.68-1.01 3.51-1.8 5.18-.36.75-.8 1.45-1.18 2.2a21 21 0 01-1.39 2.34c-.23.35-.53.63-.8.95-.23.3-.4.65-.62.97-.47.66-1.03 1.23-1.6 1.8-.56.57-1.11 1.15-1.65 1.74-.54.59-1.17 1.06-1.74 1.61-.53.52-.99 1.09-1.53 1.6-.53.48-.77 1.16-1.34 1.6-.3.24-.64.43-.94.67-.25.2-.51.55-.87.48-.4-.08-.71-.6-.96-.88l-.96-1.05c-1.26-1.37-2.56-2.71-3.83-4.07-.63-.67-1.31-1.28-1.92-1.96-.44-.5-1.17-.84-1.79-.5-.62.34-1.37.64-1.88 1.15-.55.56-.99 1.28-1.43 1.92a5.2 5.2 0 00-.77 2.25c-.13.84-.27 1.67-.2 2.53.12 1.62.42 3.43 1.35 4.8.45.64 1.06 1.13 1.6 1.69.6.6 1.02 1.34 1.5 2.02a26.2 26.2 0 003.42 3.78c.58.55 1.24 1.02 1.83 1.58.63.6 1.26 1.13 1.97 1.62.73.5 1.32 1.16 1.98 1.75.67.6 1.36 1.17 2.1 1.69 1.43.99 2.88 1.64 4.53 2.14 1.82.55 3.59 1.27 5.4 1.84.87.28 1.73-.1 2.56-.38.84-.29 1.67-.62 2.44-1.06 1.58-.9 3.1-1.92 4.64-2.86 1.61-.97 2.96-2.09 4.2-3.52 1.16-1.35 2.4-2.7 3.47-4.15 2.17-2.93 3.49-6.4 5.1-9.64.85-1.72 1.72-3.42 2.43-5.22.35-.88.66-1.78 1.02-2.65.15-.38.28-.52.69-.58.46-.08.94-.1 1.41-.17 1.87-.22 3.68-.55 5.53-.87 1.71-.3 3.43-.6 4.97-1.47.32-.18.7-.4.88-.74.08-.16.27-.95.16-1.08-.06-.07-.5-.06-.6-.08zM197.79 15.27l1.8-.9c1.28-.62 2.54-1.28 3.84-1.88.58-.26 1.2-.44 1.8-.66.64-.24 1.25-.56 1.86-.85a48.24 48.24 0 015.19-2.13c.31-.12.7-.35 1.02-.38.52-.07.92.47 1.27.79 1.92 1.72 3.27 4.28 4.1 6.7.44 1.32.65 2.69.89 4.06.24 1.4.5 2.77.51 4.2.01 1.45.16 2.88.1 4.34-.03.54.07 1.52-.23 1.99-.3.48-1.06.61-1.54.79-2.67.97-5.34 2-8.04 2.86l-8.43 2.7c.12-.8.25-1.6.34-2.4.08-.76.02-1.54.01-2.3a24.8 24.8 0 00-3.64-13.44c-.38-.6-.84-1.15-1.3-1.7-.16-.2-.72-.66-.7-.96.03-.4.86-.68 1.15-.83zm31.99-.32c.61.03 1.01.17 1.05.83.06.84.05 1.69.08 2.53.05 1.61.11 3.23.07 4.84a29.85 29.85 0 01-1.24 8.34c-.42 1.3-.92 2.6-1.46 3.85-.52 1.22-1.26 2.32-1.92 3.47a7.72 7.72 0 01-1.13 1.5c-.2.23-.3.35-.6.38-.3.04-.68-.03-.99-.06-1.42-.1-2.85-.24-4.28-.31-1.42-.07-2.84 0-4.26-.07-.66-.04-1.29-.25-1.94-.36-.66-.1-1.33-.15-1.99-.23-.34-.03-.33.05-.38-.26-.03-.17.02-.38.03-.55l.05-.98c.02-.3-.04-.8.08-1.08.1-.25.33-.3.56-.36 1.32-.36 2.6-.8 3.86-1.32 1.3-.52 2.6-1.01 3.88-1.57.56-.24 1.18-.46 1.6-.91.34-.38.53-.85.69-1.33.83-2.62.57-5.63.32-8.33-.25-2.77-.64-5.62-1.66-8.22 3.2 0 6.4.05 9.58.2zm-35.6 2.4c.88.33 1.44 1.1 1.95 1.85.65.93 1.25 1.87 1.76 2.89a24.85 24.85 0 012.15 6.83 20 20 0 01.13 6.98c-.12.6-.42 1.08-.6 1.65-.1.39-.03.94.08 1.32.14.55.66.36 1.09.27l1.87-.39c2.35-.5 4.68-1.36 7.07-1.53-.2.64-.32 1.21-.73 1.76-.38.51-.9.95-1.12 1.57a2.82 2.82 0 00-.03 1.75c.2.55.68.56 1.19.62 1.42.17 2.82.4 4.26.48.3.02.61.05.92 0 .24-.05.41-.12.66-.08.33.06.62.22.96.26.33.03.65.02.98 0 1.2-.04 2.38.09 3.58-.03.35-.03 1-.23 1.34-.03.34.2.07.64.24.93.23.39 1.01.19 1.39.17a3.55 3.55 0 001.5-.38 8.51 8.51 0 002.57-2c.75-.88 1.3-1.9 1.83-2.9.56-1.06 1.13-2.1 1.55-3.22a23.4 23.4 0 001.1-3.53c.25-1.2.4-2.42.63-3.62.24-1.26.28-2.54.35-3.81a35 35 0 00.01-3.94 70.2 70.2 0 00-.38-3.86c-.03-.33-.01-.67-.07-1-.03-.22-.15-.43-.16-.65-.02-.44.38-.73.37-1.2-.02-1.07-1.16-1.47-2.01-1.73a9.9 9.9 0 00-3.5-.45c-2.48.18-5.02.2-7.37 1.11-1.22-2.1-2.36-4.37-4.36-5.83-.22-.17-.47-.28-.61-.53-.13-.2-.18-.42-.35-.6-.4-.47-.91-.53-1.49-.4-1.25.26-2.44.55-3.62 1.02-.53.2-1.09.3-1.61.51-.51.2-1 .45-1.48.69-1.07.53-2.18.97-3.24 1.5a50.25 50.25 0 00-6.23 3.55c-.96.66-2.05 1.34-2.85 2.18-.36.37-.52.83-.46 1.34.06.53.33.32.73.47zM53.83 21.44c.1-1.37.06-2.73.16-4.1.1-1.3.36-2.61.61-3.88.26-1.3.73-2.45 1.26-3.65l.85-2c.17-.4.3-.83.78-.94.62-.14 1.37-.02 2-.04.65-.03 1.29-.07 1.93-.12 1.4-.13 2.78-.33 4.18-.48 1.33-.13 2.65-.22 3.97-.5.67-.13 1.35-.3 2.02-.46.5-.13 1.2-.44 1.7-.32a11.34 11.34 0 00-.83 4.5c0 .6-.08.86-.71.82-.8-.05-1.59-.13-2.37-.22-1.49-.17-2.96-.44-4.43-.7-.7-.12-1.37-.3-2.05-.44-.49-.11-.7.08-.86.53-.11.32-.15.46-.45.64-.25.15-.5.3-.72.47-.4.32-.75.7-1.05 1.12-.66.93-1.08 2.02-1.46 3.09a27.49 27.49 0 00-1.56 8.44c-.04 1.44-.28 2.86-.3 4.31 0 .64.16 1.46-.38 1.93-.52.45-1.19.78-1.77 1.15a14.2 14.2 0 01-.66-4.55c-.01-1.54.02-3.07.14-4.6zm21.6-7.75c.64.17 1.28.32 1.92.47-1.1 2.62-1.05 5.52-1.14 8.32-.03 1.25 0 2.5.12 3.75.13 1.27.41 2.49.67 3.74.06.27.2.72.01.97-.2.28-.85.42-1.13.55-1.12.5-2.22 1.06-3.37 1.51-1.16.46-2.36.74-3.5 1.27-1.1.53-2.23 1-3.38 1.42-1.14.4-2.32.7-3.41 1.22-1.04.48-1.9 1.15-2.78 1.87a20.14 20.14 0 01-.85-5.12c-.09-1.67-.23-3.42-.06-5.09.08-.76.08-1.47.07-2.23-.02-.69.14-1.36.2-2.04.12-1.5.11-2.99.31-4.48.39-2.82 1.15-5.8 2.68-8.23.1-.15.2-.4.33-.51.23-.2.15-.16.45 0 .28.14.55.3.84.42.6.26 1.25.38 1.88.56.7.2 1.34.5 2.06.61.7.11 1.42.12 2.12.23.4.07.75.2 1.13.3.3.07.6.05.93.08.63.07 1.24.25 1.86.3.71.07 1.34-.08 2.04.1zM52.3 25.87c.21 1.73.67 3.42 1.35 5.02.21.52.46 1.24 1.07 1.39.57.13 1.26-.3 1.8-.44.42 2.5.6 5.11 1.72 7.43.15.3.33.84.62 1.04.3.2.66 0 .95-.11 1.25-.47 2.53-.77 3.81-1.1.63-.16 1.27-.3 1.88-.51.5-.18.99-.4 1.52-.49a20.6 20.6 0 003.2-.94c2.23-.79 4.48-1.5 6.54-2.69.98-.56 2-1.12 2.92-1.8.74-.56 1.57-1.4 1.2-2.41-.1-.31-.4-.82-.75-.91-.33-.1-.62.2-.92.27-.45.1-.35-.26-.4-.62l-.1-.84-.19-1.76c-.21-2.45-.11-4.9-.11-7.35 0-1.22.28-2.3.56-3.48.16-.63.3-1.26.43-1.89.07-.35.16-.73.06-1.09-.23-.8-1.36-1.02-2.03-1.24-.58-.2-1.16-.37-1.76-.49-.33-.06-1.2-.01-1.41-.29-.21-.27.02-1.15.04-1.47.04-.6.08-1.2.16-1.79.13-.96.11-1.84-.65-2.54.48-.38.81-1.19.12-1.54a4.1 4.1 0 00-2.7-.25c-.91.24-1.92.24-2.86.34-1 .1-2 .24-3 .36-1.72.22-3.47.27-5.17.62-.85.17-1.7.3-2.55.44-.9.14-1.43.26-1.96 1-1 1.43-1.93 2.89-2.5 4.55a20.91 20.91 0 00-.93 4.87c-.16 1.78-.2 3.55-.18 5.34.02 1.79 0 3.59.22 5.37zM16.2 96.13c.1-.17.41-.21.57-.28.26-.1.5-.23.74-.37 1.2-.69 2.36-1.4 3.47-2.23.27-.2.93-.95 1.33-.83.19.06.3.38.38.53a13.52 13.52 0 002.83 3.6 9.42 9.42 0 005.97 2.69c-1.5 2.05-2.95 4.2-4.66 6.08-.86.96-1.81 1.82-2.7 2.74-.16.16-.24.25-.45.34-.19.09-.38.11-.54.28-.28.28-.3.7-.24 1.06-1.59.06-3.31-.65-4.76-1.24a20.9 20.9 0 01-2.48-1.18c-.55-.3-1.15-.65-1.55-1.14 1.46-.78 2.94-1.52 4.34-2.4.96-.61 2.65-1.32 2.51-2.71-.02-.22-.1-.49-.3-.61-.28-.19-.35.03-.6.09-.43.09-.92-.47-1.24-.7a7.33 7.33 0 01-2.23-2.34c-.15-.29-.59-1.04-.4-1.38zM7.3 108.5c.23-.77-.87-1.37-1.36-1.74a7.04 7.04 0 01-1.74-1.96c-1.92-3.04-2.6-6.75-2.45-10.3.05-1 .16-1.98.18-2.97.01-.51-.02-1 .1-1.5.1-.48.23-.95.34-1.43.24-.95.36-1.92.64-2.86.26-.87.61-1.7 1.03-2.52.27-.53.53-1.29 1.26-1.19.9.13 1.78.6 2.66.84.97.27 1.96.5 2.94.73.95.22 1.88.54 2.84.73.5.1 1 .14 1.5.13.23 0 .63-.02.65.28.02.34-.49.7-.7.9-.3.3-.51.56-.67.95-.39.9-.74 1.86-.88 2.84-.14.96-.12 1.96-.13 2.93-.02 1.94.26 3.8.96 5.63a8.98 8.98 0 002.97 3.89l-4.25 2.11c-1.27.64-2.56 1.18-3.65 2.12-.45.39-.98.83-1.3 1.34-.4.63.16 1.05.76.8.66-.28 1.3-.6 1.95-.9.42-.2 1.11-.73 1.6-.72.42.01.58.54.76.84.3.47.66.89 1.07 1.27.86.8 1.86 1.46 2.91 1.96 1.16.55 2.42.93 3.69 1.14.69.12 1.4.19 2.1.16.52-.02 1.27-.02 1.74-.28.41-.22.2-.67.6-.9.43-.25.88-.43 1.3-.7a6.74 6.74 0 002.11-2.48c1.31-2.3 2.9-4.38 3.89-6.85.23-.58.36-1.26.74-1.77.25-.33.8-.53.86-.97.06-.43-.1-1.38-.54-1.58-.49-.23-1.2-.23-1.74-.36a14.96 14.96 0 01-6.36-2.91c-.46-.39-.9-.8-1.31-1.25-.3-.32-.63-.67-.57-1.15.06-.43.4-1.05-.3-1.17-.47-.08-1.11.17-1.5.4-1.14.73-2.2 1.6-3.3 2.4-1 .73-2.02 1.43-3.03 2.13.11-1.67.06-3.5.46-5.13.2-.8.53-1.56.97-2.26.45-.71.81-1.46 1.2-2.2.22.12.58.4.78.07.12-.21.04-.77-.01-1-.35-1.8-3.07-1.98-4.47-2.29-2.02-.44-4.03-.97-6.07-1.28-.94-.14-1.88-.17-2.83-.23-.48-.03-1.05-.14-1.35.35-.08.14-.09.33-.17.43-.08.1-.31.2-.42.28a4.6 4.6 0 00-.82.87c-.49.67-.82 1.44-1.14 2.19a21.05 21.05 0 00-1.47 5.7c-.24 2.01-.42 4.09-.28 6.11.24 3.72 1.25 7.5 3.59 10.48a5.85 5.85 0 001.9 1.65c.37.2 1.55.9 1.76.2zM33.97 152.29c-.72.93-1.45 1.86-2.1 2.85-.65 1-1.27 2.01-1.91 3.02-.62.97-1.3 1.91-1.8 2.96-.28.6-.31 1.39-1.1 1.36a6.72 6.72 0 01-2.93-.82 12.15 12.15 0 01-4.5-4.07 24.6 24.6 0 01-2.77-5.88 40.26 40.26 0 01-.93-3.44c-.13-.59-.28-1.17-.28-1.77 0-.27.02-.53.03-.8.01-.25.15-.7-.14-.71l.26-2.17c.07-.53.06-1.11.52-1.46.44-.33 1.13-.34 1.64-.46.63-.14 1.25-.3 1.86-.5 1.25-.38 2.46-.9 3.67-1.4.6-.25 1.21-.5 1.78-.82.47-.27.81-.66 1.13-.05 2.18 4.16 3.77 8.82 7.34 12.04.29.26.76.58.8 1 .04.42-.34.82-.57 1.12zm2.87-2.94c-.5-.35-1.13-.4-1.64-.72-.58-.37-.97-1.2-1.37-1.74a70.27 70.27 0 01-2.77-4c-.78-1.25-1.49-2.54-2.24-3.81-.38-.65-.78-1.28-1.23-1.88-.2-.26-.69-1.16-1.1-1.13-.21.02-.2.22-.35.29-.08.03-.15 0-.22 0-.28.04-.58-.1-.86-.07-.7.07-1.47.37-2.14.57-1.41.43-2.76 1.03-4.15 1.52-1.38.49-2.91.81-4.17 1.57-.5.3-1.06.79-.57 1.37.19.22.44.22.63.4.16.14.1.22.05.46l-.06.42c-.23 1.46-.41 2.92-.2 4.4.2 1.48.51 2.96.93 4.4 1.31 4.56 3.67 9.97 8.29 12 1.08.47 2.16.58 3.3.8.36.06.66.22.98.39.15.07.34.2.52.18.42-.05.77-.7.96-1.01.74-1.16 1.58-2.26 2.34-3.4.4-.6.78-1.2 1.1-1.83.19-.37.32-.98.84-.97l.42.56c.06.08.14.16.18.25.1.2.1.05.05.3-.05.32-.35.68-.53.93-1.1 1.47-2.23 2.9-3.37 4.34a37.46 37.46 0 01-3.58 4.03c-.26.25-.55.56-.94.58-.36.01-.75-.18-1.11-.24-.77-.13-1.57-.17-2.32-.4-.4-.12-.73-.35-1.13-.38a1.73 1.73 0 01-.88-.26c-.68-.4-1.43-.63-2.11-1.02a14.67 14.67 0 01-3.92-3.24c-.54-.65-.98-1.37-1.5-2.03a20.13 20.13 0 01-3.59-6.31c-.28-.8-.42-1.31.27-1.9.66-.54 1.27-1.11 1.8-1.77.27-.32 1.48-1.5.57-1.7-.48-.1-1.26.72-1.63 1.02-.6.49-1.18.96-1.88 1.31-.78.4-.8.9-.78 1.72.02 1.69.65 3.34 1.3 4.88a22.7 22.7 0 002.53 4.48c1.93 2.67 4.09 5.37 7.1 6.87 1.48.73 3.08 1.12 4.72 1.3.97.12 1.95.15 2.92.13.41-.01.95.04 1.34-.08.32-.1.38-.34.5-.63.26-.69.98-1.06 1.47-1.61.51-.6 1.06-1.15 1.59-1.72 1.15-1.25 1.92-2.71 2.84-4.12.52-.78 1.07-1.54 1.52-2.36.36-.66.81-1.53.94-2.28.1-.6-.38-1.47-1.04-1.5-.35-.02-.62.25-.96.29-.1 0-.45-.06-.57-.01.55-1.35 1.37-2.62 2-3.93.35-.74.68-1.5 1-2.25.23-.58.5-1.05-.09-1.46zM45.71 42.59c1.1 2.52 2.84 4.52 4.63 6.57a20.59 20.59 0 003.06 2.93c1.07.81 2.15 1.6 3.23 2.4-1.08 1.4-2.3 2.67-3.5 3.95a16.87 16.87 0 00-2.96 3.88c-.08-.7-.53-1.14-1.15-1.43a10.5 10.5 0 01-2.14-1.27 32.82 32.82 0 01-3.93-3.8c-2.45-2.71-4-6.14-5.7-9.34l8.46-3.9zm-9.05 6.35c.42 1.17 1.02 2.29 1.56 3.4.54 1.08 1.1 2.16 1.73 3.2a17.96 17.96 0 007.45 7.08c.49.25 1.01.43 1.56.4.34-.02.8-.31 1.06-.05.27.27.18.82.74.55.46-.21.86-.67 1.2-1.04.86-.92 1.72-1.84 2.55-2.8.8-.91 1.45-1.96 2.13-2.98l1.1-1.68c.27-.4.65-.8.63-1.31-.04-1-1.25-1.67-1.95-2.22a18.8 18.8 0 01-2.35-2.19c-.77-.86-1.74-1.58-2.57-2.39-.9-.88-1.71-1.83-2.52-2.8a24.65 24.65 0 01-1.82-2.38c-.43-.65-.9-1.16-1.76-1.03-.66.15-1.33.26-1.97.5-.64.25-1.26.56-1.89.85-1.13.52-2.18 1.18-3.28 1.76-.25.14-.5.27-.72.44-.13.1-.26.27-.39.34-.1.05-.16.04-.28.07-.44.13-.61.38-.84.77-.35.63-.34.97-.02 1.61.3.6.43 1.28.65 1.9zM81.4 80.24c.28.45.74.23 1-.09.8-.97 1.53-2.02 2.25-3.05.72-1.05 1.38-2.1 2.2-3.08A148.39 148.39 0 0199.36 60.8c.86-.8 1.75-1.57 2.57-2.4.37-.37.8-.77.8-1.34-.02-.4-.28-.9-.63-1.1-.76-.44-1.78.64-2.34 1.05-.43.3-.9.47-1.35.72-.4.22-.8.56-1.13.87-.77.68-1.59 1.26-2.36 1.92-.79.68-1.48 1.45-2.25 2.14-.83.74-1.71 1.38-2.45 2.22-.72.83-1.34 1.73-2.1 2.54-1.6 1.72-2.92 3.66-4.29 5.57a15.5 15.5 0 00-1.6 2.97c-.23.51-.45 1.03-.66 1.56-.2.5-.22 1-.3 1.52.1.02.02 1.02.13 1.2zM259.64 164.92c.6-.72 1-1.77 1.44-2.61.48-.9.91-1.73 1.11-2.73.1-.49.15-.98.26-1.46.1-.45.25-.85.21-1.32-.04-.5-.27-1.98-1.02-1.81-.43.1-.35.56-.35.9a4 4 0 01-.16 1.15c-.27.88-.92 1.66-1.33 2.5-.4.8-.86 1.53-1.45 2.2-.57.65-1.21 1.26-1.88 1.8-.59.48-1.3.84-1.72 1.5-.26.38-.3.5-.77.6a2.9 2.9 0 00-1.05.46c-.37.25-.62.56-1.05.73-.36.15-.75.23-1.12.37-.86.32-1.61.86-2.5 1.16-.44.15-.9.28-1.37.42-.36.11-.8.19-1.1.44-.51.41-.8 1.48-.35 2.03.48.6 1.6.23 2.23.15l.03.13c1.05-.22 2.15-.34 3.17-.67a8.39 8.39 0 001.52-.7c.42-.24.85-.32 1.3-.47.4-.13.72-.34.97-.68.32-.45.46-.31.95-.42.8-.18 1.48-1.08 2.02-1.62.67-.67 1.41-1.32 2.01-2.05zM108.07 36.8c.18-.28.83-.55 1.12-.74l1.2-.81c.7-.51 1.2-.18 1.83.31a3.95 3.95 0 011.54 3.56c0 .42.12 1.13-.2 1.47-.32.34-.96.3-1.37.39-.53.1-1.34.78-1.9.58-.48-.17-.3-1.04-.34-1.42a3.92 3.92 0 00-.75-1.98 4.1 4.1 0 00-.8-.78c-.22-.17-.52-.28-.33-.57zm-2.13 2.17c.46.08.93.3 1.36.47.28.11.65.22.88.42.38.34.22.88.31 1.32.06.26.19.48.1.75-.12.32-.45.37-.62.63-.24.37.08.9.29 1.22.36.55.86.27 1.43.19.68-.1 1.38-.13 2.03-.35.54-.19.98-.6 1.39-.05.15.21.18.4.48.32.25-.07.5-.4.67-.58 1.06-1.07 1.32-2.55 1.33-4a8.2 8.2 0 00-1.36-4.5c-.17-.28-.35-.61-.61-.83-.26-.22-.59-.3-.81-.56-.35-.38-.27-1.14-.81-1.3-.58-.18-1.4.51-1.84.81-.61.42-1.22.86-1.8 1.31-1.27.97-2.68 1.9-3.83 3-.38.37-.54 1.04-.15 1.48.39.45 1.05.16 1.56.25zM173.8 154.59a23.66 23.66 0 00-1.17-4.18c-.32-.88-1.06-2.4-2.25-2.3-1.3.09-.43 1.8-.3 2.47.5 2.65.78 5.36 1.17 8.03.2 1.32.26 2.69.57 3.99.15.63.37 1.25.64 1.85.16.38.37.88.8 1.05 1.29.52.96-1.76.95-2.32l-.1-4.12h.1c-.2-1.49-.16-2.99-.41-4.47zM20.17 179.56c-.7.23-1.23.4-2 .33-.54-.05-1.07-.16-1.61-.23-1.39-.17-2.7-.56-3.98-1.13a12.65 12.65 0 01-4.6-3.4c-.32-.35-.62-.61-1.11-.68.13.72.28 1.29.62 1.94a10.91 10.91 0 003.55 3.99c.98.66 2.08 1.23 3.24 1.53.65.16 1.31.26 1.97.38.62.12 1.22.24 1.85.15.6-.08 1.21-.1 1.79-.26.45-.14.89-.43 1.27-.69.76-.52-.06-2.24-.99-1.94zM43.25 18.29c.35.47 1.1.47 1.05-.22a7.46 7.46 0 00-.44-1.85c-.21-.61-.17-1.27-.18-1.91-.03-1.52.02-3 .3-4.49.28-1.44.46-2.9.78-4.32.31-1.4.88-2.73 1.23-4.13.1-.43.2-1.27-.43-1.36-.53-.09-.83.65-1.04 1-.67 1.15-1.4 2.21-1.8 3.5a18.87 18.87 0 00-.75 3.6c-.14 1.26-.12 2.53-.2 3.8.13 1.47.06 3.1.54 4.51.21.64.53 1.33.94 1.87zM240.54 24.08c-.2.5-.3 1.02.05 1.49.64.85 1.67-1.08 1.82-1.62.34-1.17.77-2.34.96-3.55.2-1.23.1-2.55.13-3.8-.1-1.48-.3-2.95-.65-4.4-.31-1.27-.65-2.58-1.68-3.44-.44-.36-.73-.09-.8.42-.06.56.09 1.12.34 1.61.6 1.16.6 2.5.73 3.79.27 2.56.42 5.1-.25 7.62-.17.64-.4 1.26-.65 1.88zM21.34 52.66a14.45 14.45 0 002.14 4.8 17.27 17.27 0 004.09 4.16c.51.37 1.76 1.39 2.43 1.05.91-.47-.31-1.66-.68-2l-2.3-2.15c-.78-.71-1.36-1.62-1.97-2.48a47.5 47.5 0 01-1.78-2.62c-.3-.46-.55-.95-.83-1.41-.25-.4-.62-.68-.94-1.02-.27.13-.24.1-.3.35-.03.1-.03.31-.02.4 0 .32.08.62.16.92zM87 61.67c1.44-1.32 3.04-2.43 4.4-3.83.35-.35.62-.56.32-1.04-.2-.32-.43-.49-.77-.27-.8.53-1.57 1.18-2.34 1.75-1.6 1.18-3.24 2.34-4.68 3.7-.65.62-1.25 1.3-1.75 2.04-.53.78-.93 1.57-.34 2.44 1.73-1.59 3.42-3.22 5.15-4.8zM263.7 169.88c-.26-.06-.7.22-.88.35-.77.5-1.57.98-2.35 1.47-.72.46-1.42.93-2.13 1.4-.59.4-.97.88-.76 1.62.09.34.25.74.64.54.29-.14.54-.28.85-.4.8-.28 1.6-.56 2.35-.96 1.3-.71 2.5-1.8 2.68-3.35-.1-.22-.12-.6-.4-.67zM178.75 154.32c-.26-.28-.58-.29-.72.06-.15.36.04.97.1 1.33.08.58.17 1.16.27 1.73.05.34.1 1.39.54 1.53.68.2.7-1.45.75-1.78l-.42-1.47c-.13-.43-.2-1.05-.52-1.4zM64.44 125.8c-.16-.07-.29-.03-.32-.23-.03-.16.22-.33.26-.46.14-.5-.38.02-.57.18l.53 1.32.61-.24c-.2-.26-.22-.42-.51-.56zM159.38 45.8c.34.1.84-.05 1.18-.11.33-.06.7-.15 1.03-.28.78-.3.71-1.23.53-1.95-.24-.97-.78-1.9-1.22-2.8l-.64-1.4c-.15-.37-.35-.87-.82-.87-.72-.01-.37 1.68-.25 2.08.29 1.02.82 1.95 1.26 2.9-.4.03-.83.08-1.24.07-.43-.02-.54 0-.65.47-.15.69.06 1.63.82 1.88zM152.92 37.5c.77-.04 1.54-.12 2.31-.2.57-.07 1.55-.08 1.96-.53.27-.3.22-.96-.02-1.28-.28-.38-.95-.23-1.38-.23a7.58 7.58 0 00-3.28.68c-.38.19-1.23.53-1.14 1.03.11.64 1.08.57 1.55.54zM156.14 46.42c-.65.17-.52 1.27-.32 1.74.3.7 1.05.86 1.74.82.33-.04.8.08 1.05-.2.25-.27.24-.82.07-1.13-.23-.4-.83-.63-1.23-.82-.35-.17-.9-.5-1.31-.4zM156.22 40.68c.05-.64-.3-2.06-1.15-2-.4.02-.75.6-.82.95-.07.37.03.75.13 1.1.16.59.4 1.5 1.18 1.37.65-.11.66-.89.66-1.42zM162.31 41.31c.17.17.42.3.66.19.35-.17.3-.59.3-.9l.11-.03c-.2-.56-.33-1.72-1.03-1.88-.68-.15-.73.6-.66 1.08.06.5.24 1.17.62 1.54zM140.84 41.25c-.34.03-.97.2-.92.62.08.62 1.06.73 1.55.79.58.07 1.4.01.84-.72-.34-.45-.9-.65-1.47-.69zM112.24 115.44l-.36.72 1.14.14c.02-.3-.58-.68-.78-.86z"/>
  </g>
  <defs>
    <clipPath id="clip0">
      <path  d="M0 0h293v220H0z"/>
    </clipPath>
  </defs>
</svg>