<svg xmlns="http://www.w3.org/2000/svg" fill="none" viewBox="0 0 368 276">
  <defs/>
  <path fill="#D0D0E5" fill-rule="evenodd" d="M190.6 137.29c.8.15 2.13 2.45 2.68 3.1l5.27 6.32c.7.85 1.72 1.73 2.22 2.7.38.76.51 1.8.74 2.6 2.86 9.99 5.66 20.04 7.74 30.23.45 2.2.87 4.4 1.12 6.63.13 1.1.45 2.71-.03 3.78-.54 1.2-2.28 1.7-3.4 2.06-2.2.73-4.5 1.16-6.78 1.54a187 187 0 01-16.58 1.91c-1.69.13-3.43.13-5.11.36-.8.1-.57-.1-.82.43-.35.75-.12 2.32-.16 3.14l-.3 5.77-.8 15.75-.82 15.96-.3 6.05c-.06 1.08.1 2.47-.19 3.52-.22.79.14.55-.83.6-2.24.1-4.56-.16-6.8-.24l-7.63-.28c-.72-.02-1.54.18-1.83-.34-.36-.63-.08-2.37-.1-3.08l-.22-5.92-.58-16.25-.8-22.16-8.48 1.71-12.53 2.52c-1.92.39-4.2 1.27-6.17.99-1.97-.29-2.78-1.13-2.9-3-.11-2-.06-4-.04-6 .05-3.28.14-6.56.26-9.83l16.75-1.5c2.97-.28 5.95-.54 8.92-.81.68-.06 2.34.07 2.64-.44.47-.79-.05-3.39-.07-4.28l-.13-8.46-.49-31.1 4.01.12c5.82.17 11.66.4 17.48.23 2.91-.1 5.68-.88 8.43-1.81 1.47-.5 2.91-1.03 4.35-1.6.46-.17 1.79-1.02 2.28-.92zm-7.89 28.93l-2.97 14.53 10.17-.67-7.2-13.86z" clip-rule="evenodd"/>
  <path fill="#8D8DAA" fill-rule="evenodd" d="M267.62 48.38c-.2 1.62-.06 3.38-1.88 3.8-1.69.4-3.54.3-5.26.43-1.94.15-3.87.37-5.8.56-2.43.24-2.08-.7-2.62-2.77-.48-1.9-1.26-3.8-1.9-5.65-.3-.86-.66-1.65-1.07-2.46-.37-.74-.2-1.73-.6-2.35-1.36-2.1-8 3.65-8.62 2.52 1.12-.88 3.07-1.86 3.41-3.36.41-1.76-.7-2.28-2.11-1.64a43.66 43.66 0 01-11.23 3.4c1.22-.81 12.26-7.24 8.55-9.15-.83-.43-1.95.38-2.7.69-1.2.48-2.44.8-3.69 1.13-1.31.33-2.63.65-3.95.96-.93.21-2.58.97-3.48.79-.92-.2.7-.76.97-.9a85.7 85.7 0 003.43-1.85c2.01-1.12 3.87-2.43 5.4-4.17 1.15-1.32 3.05-4.2 2.25-6.01-.47-1.06-1.49-2.03-2.09-3.03-.7-1.17-1.26-2.41-1.87-3.63 1.02.45 2.16.56 3.2.96 1.03.4 2.09.73 3.17 1.03 2.16.6 4.32.7 6.47 1.19 2.42.55 4.95 1.16 7.42 1.48 2.15.27 4.08.86 5.92 2.03a18.04 18.04 0 017.68 10.08 29.2 29.2 0 011.06 7.68c.1 2.73.3 5.52-.06 8.24zm-21.09.2c-2.62 1.92-5.68 3.41-8.5 5.04-1.61.93-3.26 1.8-4.9 2.67-1.17.62-2.59 1.76-3.87 2.08-.81.2-.75.22-1.26-.52-.5-.71-.93-1.47-1.39-2.2-.84-1.34-1.7-2.68-2.56-4.02-1.91-3-3.83-6-5.84-8.93-2.03-2.95-3.97-5.95-5.93-8.94-.9-1.38-1.81-2.78-2.78-4.13-.74-1.03-2.63-2.6-1.73-3.82.83-1.13 2.73-2.06 3.86-2.92 1.37-1.04 2.76-2.07 4.13-3.12 2.94-2.25 5.81-4.6 8.75-6.86 2.5 4.39 5.44 8.5 8.4 12.57a105.85 105.85 0 01-8.2 4.8c-2.1 1.08-5.29 2.54-6.6 4.6-1.3 2.01-.03 4.34 2.29 4.38 1.38.02 2.76-.35 4.12-.56.97-.15 2.76-.85 3.65-.35-1.6 1-7.35 3.96-4.24 6.55 2.21 1.85 5.97-.85 8.36-.3-.73 1.4-1.49 3.64.54 4.4 1.69.64 3.9-.55 5.41-1.17 1.1-.46 2.2-.92 3.27-1.42.86-.4 1.89-1.19 2.8-1.36 1.07-.2 3.25 2.78 2.22 3.53zM197.74 151.9c1.5-.27 2.27-.9 2.75.93.42 1.63.84 3.2 1.39 4.81a10.4 10.4 0 00-6.13 2.9c-1.22 1.12-3.64 3.8-3.04 5.68 1.46 4.57 8.83-5.68 9.7-6.77 1.08 1.56 1.47 3.61 2 5.4.38 1.28 1.79 3.72-.07 4.03-2.61.44-7.51 1.41-7.2 5.11.36 4.37 5.92 4.34 9.03 4.54 1.76.11 1.77 1.52 2.02 3.1.11.7.46 1.65-.14 2.17-.53.45-2.16.47-2.85.61l-6.04 1.31c-2.29.5-3.5-.2-5.64-.82-.79-.24-1.59-.14-1.64-1.02-.04-.55.5-1.39.67-1.93a29.98 29.98 0 001.47-6.55c.3-3.25-.07-8.12-4.07-8.75-1.9-.3-2.27-.4-3.13-2.19-.92-1.93-2.4-3.72-2.04-5.94.26-1.62-.18-4.67.85-6 .47-.62 1.4-.99 2.03-1.44.81-.58 1.59-1.2 2.34-1.85.63-.54 1.4-1.6 2.12-2 .87-.48.9-.15 1.53.6.93 1.1 2.4 4.38 4.1 4.07zm4.25 7.22c-.53 1.05-1.73 2.03-2.5 2.9-.76.88-1.5 1.82-2.35 2.62-.95.88-4.3 3-3.57.14.58-2.22 2.73-4.03 4.63-5.14.37-.21 4.67-2.3 3.79-.52zm3.67 10.6c.33 1.48.51 3.02.8 4.51.14.77.95 2.62.62 3.36-.56 1.25-5.57-.23-6.6-.66-2.48-1.02-3.62-3.65-1.34-5.52.87-.71 6.19-3.19 6.52-1.7zm3.29 17.87c.28 1.43 1.1 2.74-.26 3.82-1.12.9-2.95 1.5-4.34 1.82-1.88.43-2.48-.63-3.48-1.98a68.4 68.4 0 00-3.4-4.24l11.15-2.5c0 1.04.13 2.07.33 3.08zm-8.91 6.6c-1.94-.1-4.02.49-5.99.64-2.46.19-4.9.47-7.36.63.63-2 1.76-3.8 2.64-5.7.9-1.9 1.51-2.1 3.56-2.25 1.89-.14 3.22-.79 4.62.82 1.45 1.67 2.77 3.48 4.1 5.25-.46.3-1 .64-1.57.61zm-13.86.41c-.47.35-1.95-.64-2.45-.83-.96-.38-1.18-.5-1.68-1.44-.44-.81-1.13-1.73-1.26-2.66-.18-1.22.36-2.82.56-4.04.52 1.27 2.24 1.41 3.4 1.62.88.16 3.48-.1 4.14.53.73.7-.62 2.62-.97 3.34-.41.87-.93 2.9-1.74 3.48zm-.93 1c-.58.1-2.24.67-2.2-.38.03-1.2 2.31.1 2.2.38zm-2.92-.06c-.1 1.01-2.28.93-2.33.04-.09-1.5 2.5-1.66 2.33-.04zm-2.5-27.27c-.55 1.58-3.94 2.15-5.24 2.64-1.19.44-4.74 2.5-5.96 1.75 4.15-2.84 8.4-5.64 11.91-9.28.15.9-.07 1.65-.34 2.5-.24.77-.11 1.69-.36 2.39zm-1.02 5.78c-.6 3.88-1.19 7.81-2 11.65-1.53-.47-2.8-1.42-4.42-1.75-1.47-.3-3-.31-4.49-.1-3.17.48-6 2.05-8.76 3.58-.25-2.66-.78-5.51-.72-8.18.05-2.22 3.85-2.88 5.57-3.8 1.04-.55 1.98-1.33 3.17-1.52 1.22-.2 2.4-.2 3.6-.57 2.86-.88 5.55-2.27 8.34-3.31.23 1.33-.09 2.69-.3 4zm-2.67 16.42c-.12.89.04 2.46-.64 3.13-.63.64-1.98.66-2.82.83l-7.62 1.59c-1.14.24-2.27.47-3.41.69-.55.1-1.91.62-2.37.19-.44-.41-.11-1.73-.09-2.28.05-1.1.11-2.2.04-3.3-.13-2.12-.01-2.92 1.95-4.02a21.27 21.27 0 016.6-2.38c2.38-.44 4.65-.2 6.91.71.63.26 1.58.57 1.87 1.25.4.93-.28 2.66-.42 3.6zm-2.86 34.05c-.93.59-2.96.49-4.03.6-1.73.2-3.47.09-5.19-.18-1.3-.2-3.22-.48-4.21-1.38-1.41-1.3.21-1.35 1.3-1.26 3.12.26 6.3.08 9.43-.15.6-.04 2.24-.58 2.83-.33.75.32.52 2.3-.13 2.7zm-1.78 20.85c-5.83-.57-9.22-5.4-11.34-10.34-1.13-2.66-.72-5.44-.83-8.25-.02-.5-.35-1.78.18-2.16.5-.36 2.5.75 3.04.88 2.78.68 5.85.75 8.63.09 1.2-.29 1.88-.82 2.26.37.31.97-.2 2.74-.25 3.75-.1 1.74.18 15.84-1.69 15.66zm-11.66 0c-.02-.84-.45-9.4-.03-9.43 1.23 2.66 2.5 5.04 4.74 7 1.14 1 2.43 1.9 3.86 2.43.54.2 3.59.35 3.74 1.02.26 1.17-1.82.7-2.44.6-.5-.08-.94-.29-1.43-.38-.92-.16-1.8.06-2.73.08-1.41.03-2.8-.12-4.21 0-1.3.12-1.46-.03-1.5-1.32zm.86-38.37c5-1.62 9.18 1.44 11.81 5.44 1.5 2.29 1.84 3.88 1.58 6.59-.1.97.08 1.62-.8 2.01-.89.4-2.89.1-3.84.15-2.74.13-5.47.3-8.21.14-1.78-.1-2.03-.41-2-2.14.03-2.08-.14-4.15-.26-6.23-.13-2.26-.9-5.11 1.72-5.96zm-1.63-3c0-1.53-.09-3.1 0-4.62.1-1.51.74-1.44 2.17-1.7 3.1-.56 6.18-1.18 9.23-1.94 1.2-.3 2.57-.87 3.83-.88 1.32 0 1.25.67 1.16 1.84-.2 2.59-.67 5.14-.81 7.71-.16 2.78-.24 5.6-.23 8.37 0 .94.23 1.64-.57.76-.8-.88-1.19-2.28-1.9-3.27a11.58 11.58 0 00-6.06-4.34 8.71 8.71 0 00-4.1-.17c-.42.08-2.5 1.07-2.76.88-.17-.14.04-2.58.04-2.64zm18.28 52.97a36.81 36.81 0 006.4 3.56c1.25.56 6.2 1.74 6.35 3 .09.67-.73 1.43-1.27 1.5-.68.1-1.8-.34-2.5-.42-2.52-.3-5.04-.31-7.5-1.01-4.92-1.4-10.02-1.8-14.98-3.03-1.19-.29-2.37-.56-3.56-.82-1.13-.25-1.63-.21-1.67-1.42-.09-2.64.67-5.35.67-8.03 4.02.45 8.06.45 12.09.83 1.72.16 1.68.49 2.44 2a11.02 11.02 0 003.53 3.84zm-19.6-85.99c-.05-.98-.09-1.96-.18-2.94-.05-.66-.65-2.5-.32-3 .4-.6.81-.24 1.53-.26.95-.02 1.74-.4 2.52-.9a11.96 11.96 0 003.54-3.63c.85-1.28.69-3.02.68-4.55-.03-3.95.26-7.8.02-11.77-.11-1.83 1.44-.7 2.7-.47 2.05.38 4.29.12 6.38.12-.08.49-4.35 1.7-5.04 2.15a5.65 5.65 0 00-2.64 5.2c.33 4.31 5.07 5.03 8.55 5.04-2.88 2.54-5.71 4.97-7.97 8.11-1.67 2.32-4.6 6.88-1.88 9.44-2.41 1.37-4.8 2.9-7.53 3.55l-.36-6.09zm-1.09-78.7c.98.63 1.4-.26 2.14-.72 1.05-.65 1.4-.58 1.53-2.04.25-2.69-.88-5.13-2.3-7.33-.65-1-1.3-2.2-2.2-2.98-.84-.71-1.68-.47-2.45-1.2-.3-.3-.24-.7-.74-.7-.33.01-1.13 1.03-1.4 1.26-.86.71-1.92 1.25-3.04.66-1.64-.85-1.11-3.95.16-4.95.98-.78 2.14-.66 3.26-.78.83-.1 1-.06.66-1.02-.24-.67-.8-1.2-1.07-1.85-.53-1.26-.41-2.8-.64-4.12-.2-1.2-.69-2.5-.67-3.7.03-1.55.53-1.95 1.87-2.39 1.3-.42 2.37-1.34 3.48-2.12 1.25-.88 2.62-1.46 3.9-2.26.87-.55 1.44-1.65 2.4-1.14 1.14.61 2.34 2.39 3.31 3.3-1.42.9-1.75 1.29-1.55 3.05.18 1.62.5 3.06 1.74 4.18.48.44 1.36.78 1.73 1.28.43.58.15.07.1.73-.03.35-.31.58-.25.99.27 1.82 2.36.74 3.22.11 3.07-2.25-2.67-4.04-4.03-4.86-.94-.57-1.4-2.38.09-1.9.99.32 3.23 3.03 3.46.56 2.45 1.43 3.97 4.46 6.03 6.38 1.49 1.39 3.49 2.92 2.3 5.13-1.5 2.82-4.48 4.1-7.2 5.31-2.64 1.18-2.1 4.52-.68 6.56a7.1 7.1 0 003.17 2.44c1.31.59 1.59 1.28 1.87 2.64.32 1.5-.02 2.11-1.32 2.9-1.28.75-2.61 1.5-3.97 2.09-2.94 1.28-6 1.37-9.13 1.8-1.1.16-2.15.48-2.75-.6-.67-1.23-.72-3.34-1.03-4.7zm-.47-5.85c-.74-.4-2.52.9-3.45.95-1.5.1-2.5.06-3.83.86a32.3 32.3 0 00-6.66 5.57l-6.83 7.14a278.06 278.06 0 01-3.11 3.22c-.83.84-1.64 2.02-2.66 2.61.05-.7.49-1.21.64-1.87.1-.38-.06-.71 0-1.08.01-.12.34-.53.38-.67l.45-1.1c.14-.34.12-.7.27-1.07.15-.37.56-.62.7-1 .42-1.07-.27-1.58-1.38-1.55.43-2.17.62-3.23 2.9-4a34.77 34.77 0 006.26-2.69c1.77-1 3.24-2.47 4.94-3.6 1.52-1.01 3.41-2.07 3.4-4.14.86.58 1.67 1.07 2.65.5.83-.5.94-.9 1.9-.99.8-.07 1.28-.1 1.98.25.82.4.94.7 1.42-.5.54.45 1.92 2.37 1.88 3.13-.03.41-.1.6-.6.71-.74.16-.71-.4-1.25-.68zm-3.44 113.25c-.36.55-1.87.45-2.45.44-1.78-.02-2.4-1.51-3.19-2.95-1.23-2.28-3.07-7-1.05-9.4 1.6-1.88 4.7.5 5.79 1.92.94 1.23.66 3.07.75 4.55.07 1.24.86 4.36.15 5.44zm-4.86.83c-.71.71-3.02.56-3.96.71-1.69.27-3.36.6-4.99 1.1-1.22.37-2.42 1.36-2.74-.33-.27-1.42-.13-3.13-.1-4.57.02-1.55.18-3.08.32-4.62.09-1.05-.14-2.97.71-3.77.74-.7 2.52-.76 3.48-.99 1.56-.37 3.2-.86 4.83-.7a10.8 10.8 0 00-.02 7.85c.3.74 2.9 4.88 2.47 5.32zm-11.96-10.27c-.4 3.88-.8 7.78-.42 11.67.02.24.3 1.3.18 1.47-.12.17-1.11.26-1.34.31-.89.22-1.78.44-2.67.63-1.75.36-1.98-.74-2.32-2.36-.73-3.46.69-7.22 1.55-10.55.42-1.62.73-1.8 2.33-1.94 1.1-.1 2.85-.88 2.69.77zm-6.74 14.47c-.67.6-1.34-2.26-1.4-2.55-.23-1.16-.1-2.34-.1-3.51 0-1.84-.13-3.67-.13-5.5 0-.99-.75-3 .42-3.53.35-.16 1.71-.1 2.02.11.65.42.4.7.2 1.42-.43 1.64-.8 3.3-1.17 4.94-.36 1.63-.72 3.19-.55 4.86.06.55 1.13 3.37.7 3.76zm21.27-18.07c1.62-.46 1.7.79 1.7 1.98-.24-.19-2.55-1.74-1.7-1.98zm-21.75-87.5c-.4.65-2.92.83-3.64 1l-4.26 1.03c-2.65.67-5.23 1.41-7.95 1.76a10.77 10.77 0 001.68-7.43c-.35-3.77-.8-7.5-1.66-11.18-.86-3.63-1.85-7.24-2.8-10.85a61.27 61.27 0 00-1.6-5.23c-.5-1.39-1.27-3.13-.43-4.55a15.88 15.88 0 015.1 5.64c1.32 2.56 2.46 5.18 3.99 7.62.7 1.12 1.5 2.14 2.25 3.22.45.64.77 1.57 1.33 2.11.66.63 1.35.92 1.72-.13.4-1.14-.87-3.38-1.25-4.44-.9-2.57-1.8-5.13-2.5-7.76-.57-2.13-1.51-4.7-1.18-6.95.33-2.23 1.84-.64 2.6.4 1.58 2.13 2.52 4.61 3.55 7.03.95 2.22 2.06 4.34 3.11 6.5.37.76.85 2.71 1.81 2.94 1.4.32 1.28-1.64 1.14-2.44-.88-5.27-3.19-10.33-3.66-15.7-.03-.25-.36-2.25-.1-2.42.53-.32 1.23 1.7 1.45 2.2a53.68 53.68 0 012.72 8.02c.64 2.32 1.21 4.66 1.92 6.95.4 1.26.84 2.5 1.28 3.75.4 1.12.8 3.05 1.85 3.8 1.48 1.05 6.76-1.46 7.3.78.38 1.6-4.52 2.88-5.57 3.36-1.37.64-2.72 1.33-4.1 1.97-1.04.48-2.53.68-3.29 1.59-.8.96-.92 2.3-.95 3.5-.01.9.61 3.13.14 3.9zm-3.34 17.38c-.07.5-.47 1.16-.65 1.64-.36.97-.67 2.13-1.18 3.03-.44.78-1.08 1.48-1.5 2.27-.4.76-.45 1.62-.92 2.38-.53.85-1.42 1.47-1.95 2.33-.26.42-.53.9-.9 1.35-1.3 1.6-2.6 3.1-3.65 4.8-.27.43-1.59 2.34-2.1 2.44-1.1.22.17-1.34.39-1.66 1.54-2.32 2.92-4.77 4.41-7.13 1.45-2.28 2.93-4.55 4.32-6.87 1.14-1.89 1.93-4.6 3.77-5.94.01.46 0 .9-.04 1.36zm50.48-21.35c.9 3.7 1.97 7.27 2.99 10.94.94 3.4 2.2 7.04 2.58 10.54a45.2 45.2 0 002.47 10.28c.55 1.53 1.12 3.06 1.72 4.56.33.83.7 1.64 1.07 2.45.29.63 1.05 1.65 1.08 2.31.03.53.21.32-.31.72-.55.42-1.5.27-2.13.34-1.65.2-3.27.81-4.88 1.22-3.11.78-6.82 1.4-10 .85-1.35-.23-2.74-.42-4.07-.72-1.63-.37-1.97-1.04-2.3-2.65-.73-3.5-1.36-7-1.97-10.53-.72-4.2-1.5-8.39-2.05-12.61-.56-4.28-.96-8.56-1.84-12.78 3.54.59 6.88 1.26 10.43.29a12.08 12.08 0 007.21-5.21zm13.87 45.77c.79 1.63-1.12 3.1-2.04 4.35-1.22 1.66-2.36 3.4-3.78 4.9-.43-1.71-.8-3.63-1.94-5.03-1.45-1.78-3.14-1.05-4.92-1.9 1.87-.9 4.25-.56 6.22-1.37 1.95-.8 3.92-1.42 5.74-2.46l.72 1.5zm-6.91 38.09c-1.2.06-.4-2.45-.32-3.08.21-1.71.43-3.43.61-5.15l2.95 7.78c-1.08.15-2.15.38-3.24.44zm-1.94 12.42c.16.36.92 1.56.32 1.79-.82.3-.92-1.7-.32-1.79zm-1.42-27.92c-3.8 3.03-7.57 6.06-11.67 8.67-.9.58-1.8.81-2.4-.32-.47-.89.02-1.9.32-2.77.77-2.22 2.1-4.15 3.58-5.96 2.96-3.62 6.48-6.7 10.97-8.13.73-.24 1.87-.94 2.12.03.15.57-.49 2-.62 2.54-.53 2.21-.42 4.43-2.3 5.94zm10.92 22.1c.09 2.57-6.95.5-7.83.03.93-.3 7.8-1.2 7.83-.03zm2.61.01c.42.11 2.02.25 1.43.8-.54.5-2.97.3-3.61.35.43-1.41.76-1.53 2.18-1.15zm-1.3-3.45c-.16.58-.22 1.45-.73 1.84-.64.5-2 .2-2.72.2-1.23 0-2.46.07-3.68.19-.47.05-2.37.62-2.8.23-.33-.29-.2-1.63.03-1.93.48-.62 1.59-.4 2.28-.43 2.55-.1 5.07-.1 7.62-.1zm-1.63-9.5c-.36-.54-.43-.53-.58-1.34-.16-.86-.58-1.6-.82-2.43-.54-1.84 1.18-1.67 2.44-1 3.28 1.74 2.48 7.84 1.67 10.7-1.17-.87-1.6-1.27-2.01-2.66l-.49-1.58c-.12-.39-.03-1.43-.21-1.7zm.28-29.67c.91-.11 1.75 2.72 1.49 3.34-.53 1.25-2.58 2.38-3.62 3.18-.69.53-1.38 1.14-2.12 1.6-.69.44-1.08.2-1.72.4-.93.3-1.15 1.28-2.1 1.7-1.33.6-2.94.76-4.33 1.3a8.92 8.92 0 01-5 .35c-2.55-.44-5.53-1.7-5.3-4.8.4-5.45 11.24-8.25 14.19-3.62.77 1.2.76 2.6 1.26 3.9.54 1.4 1.06.85 1.88-.18 1.06-1.35 2.05-2.77 3.07-4.15.33-.45 1.64-2.94 2.3-3.02zm-66.4 53.12c-.05.93 0 1.87-.32 2.75-.33.9-.99 1.62-1.36 2.49-.78 1.75-.77 3.88-.74 5.77.07 4.38 1.11 8.64 1.66 12.97-1.83 0-3.72.02-5.49-.5-1.58-.47-1.83-1.63-2.28-3.09-1.26-4.09-2.61-8.16-3.02-12.45-.2-2.04-.27-4.1-.37-6.15-.08-1.8.33-2.58 1.95-3.47 3.53-1.94 7.18-3.55 10.67-5.58-.35 2.4-.57 4.83-.7 7.26zM274.5 52.49c-.86-.16-1.72-.26-2.59-.36-.45-.05-1.86.02-2.2-.27-.4-.35.3-3 .33-3.58.22-3.42-.03-6.95-.35-10.36-.56-6.17-2.5-11.89-6.99-16.33-2.22-2.21-4.73-3.97-7.77-4.82-1.78-.49-3.6-.75-5.38-1.23-1.44-.39-2.78-.83-4.27-.98-2.97-.3-5.68-1.43-8.58-2.08-2.13-.48-5.57-1.61-6.95.8a17.69 17.69 0 00-3.56-3.19c-1.31-.91-1.53-1.82-3.14-.77-3.13 2.05-6.06 4.54-8.98 6.87-2.73 2.18-5.37 4.45-8.23 6.45-2.92 2.04-2.36 5.5-1 8.38 2.6 5.4 6.57 10.02 10.06 14.65 2.18 2.9 4.37 5.8 6.54 8.71 2.08 2.78 3.88 6 6.3 8.49 1.54 1.57 3.37-.48 4.75-1.44 1.72-1.18 3.4-2.4 5.12-3.58 3.57-2.45 7.4-4.75 11.18-6.88l.82 2.33c-.83.07-1.95-.12-2.37.77-.6 1.28.88 1.44 1.14 2.17.23.65-.72 2.38-1 2.96a15.24 15.24 0 01-2.49 3.56c-3.84 4.31-8.71 7.4-13.65 10.34-5.28 3.14-10.94 5.06-16.73 7.1-2.94 1.02-5.99 1.5-9.02 2.16-2.93.64-5.85 1.47-8.84 1.71-6.11.5-12.6.86-18.64-.46-.66-.14-1.36-.45-2.03-.51-.54-.05-.94.17-1.45.2-1.1.07-1.72-.91-2.59 0-.43.45-.44 1.21-1.05.37-.77-1.08 1.2-1.3 1.93-1.6 2.46-1.03 4.43-3.12 6-5.22a6.68 6.68 0 00.83-6.81c-.95-2.47-3.11-4.14-4.73-6.14-.79-.96-1.5-1.99-2.37-2.9-.46-.47-1.2-.94-1.23-1.42-.03-.57.3-.85.1-1.54-.05-.18-.27-.28-.32-.48-.08-.3.04-.58 0-.88-.09-.7-.36-1.14-.75-1.72-.25-.36-.6-1.07-.93-1.34-.59-.47-1.38-.28-1.98-.76-.94-.75-1.27-2.34-2.1-3.26-1.17-1.29-1.42.01-2.66-.4-1.06-.35-1.04-1.94-1.9-2.48-1.2-.76-2.22.64-3.3.95-1.4.4-.86-1.18-2.12-1.33-1.13-.13-2.7 2.17-3.27 2.99-.58-.67-1.2-1.82-2.24-1.4-1.1.42-1.29 2.43-2.08 3.14-.28.25-.22.43-.56.55-.44.15-1.03-.5-1.6-.3-1.15.4-1 1.93-1 2.92-1.37-.2-2.31-.3-2.76 1.16-.45 1.43-.62.8-2.05 1.27-1.23.4-1.4 1.57-1.6 2.71-.13.71-.01 1 .18 1.65.24.82.24.8-.15 1.59-.69 1.36-.73 2.86-.84 4.36-.12 1.6-.4 3.05.06 4.61.28.97.3 2.28 1.25 2.82.37.22 1 .1 1.33.31.6.4.42 1.03.83 1.62.3.44.8.49 1.13.85.37.39.4.86.6 1.34.63 1.42 1.22 2.1-.82 2.18-1.25.05-2.6.43-3.84.31-1.48-.13-1.85-.96-2.32-2.21-2.37-6.34-3.64-13.2-6.76-19.22-.68-1.33-3.5-6.73-4.68-2.8-1 3.33.3 7.38.81 10.68-1.58-1.42-2.16-3.99-3.37-5.73-.88-1.29-3.66-4.44-5.29-2.63-1.28 1.42-.96 4.45-.72 6.15.37 2.7 1.23 5.3 1.85 7.94-.78-1.01-1.16-2.25-1.7-3.39a23.71 23.71 0 00-5.27-7.1c-.77-.72-2.16-2.3-3.26-2.38-2.84-.22-1.95 5-1.52 6.48.9 3.09 1.87 6.09 2.57 9.23 1.36 6.15 3 12.16 4 18.39.23 1.38.5 2.48-.05 3.8-.48 1.18-.98 2.58-1.87 3.48a36.29 36.29 0 00-5.18 6.66c-1.61 2.63-3.27 5.29-4.58 8.07-.6 1.29-1.1 2.68-1.8 3.91-.62 1.12-1.38 2-1.82 3.23a78.7 78.7 0 00-4.43 17.93c-.59 5.12-.04 11.94 6.15 13.14 2.84.55 5.4-.71 7.96-1.75 2.65-1.08 4.56-2.83 6.73-4.69 2.68-2.3 5.47-4.47 8.19-6.74 2.71-2.28 5.22-4.8 7.93-7.1a70.28 70.28 0 007.38-7.3c2.3-2.62 4.15-5.51 6.37-8.16 0 3.43-.52 6.83-.66 10.25a114.7 114.7 0 000 9.42c.12 3.14-.71 6.13-.72 9.26 0 3.06-.12 6.1-.2 9.14-.02 1.37-.29 2.9.22 4.23.38.98 1.58 1.3 2.6 1.56 1.6.41 6.35-.38 7.06 1.31.38.92 0 2.6.03 3.62.05 1.68.1 3.36.17 5.04.06 1.74.11 3.47.18 5.2.05 1.53.35 3.24.17 4.75-.16 1.3-.92 1.13-2.12 1.2-1.8.1-3.61.17-5.42.25-2.66.12-5.43.07-7.97.38-1.07.13-2.24.07-3.37.29-1.41.27-2.72.34-4.15.4-1.16.06-2.64-.02-3.55.83-.32.3-.39.66-.61.99-.42.61-.19.45-.88.59a58.9 58.9 0 00-7.85 2.07c-1.3.46-2.53 1.07-3.85 1.5-1.15.38-2 .84-2.57 1.98-1.02 2.03-.76 4.96-.69 7.14.12 3.4.88 6.65 1.7 9.95.84 3.43 1.5 6.94 3.16 10.1.54 1.03 1.13 2.35 2.24 2.89 1.43.7 3.63.27 5.2.28 1.04 0 3.85.36 4.63-.52.76-.85 0-3.25-.11-4.31-.38-3.7-1.05-7.44-1.04-11.17.85 1.27 2.34 3.45 3.82 1.51.37-.47.22-.7.87-.97a4.28 4.28 0 011.5-.22c.54.03.74.25 1.22.14.44-.1.92-.48 1.42-.6 6.14-1.45 12.25-3.03 18.42-4.33 1.63-.34 1.4.9 1.5 2.32.12 1.56-.1 3.13.11 4.68.19 1.34.34 2.65.07 4-.31 1.59-.11 2.92.2 4.5 1.2 6.07.99 12.67 1.26 18.85.14 3.22-.16 6.5.14 9.7.11 1.21.79 1.88 1.06 2.98.32 1.26-.54 2.87-.8 4.1-.52 2.45-1.44 5.97.24 8.1.9 1.16 2.1 1.32 3.44 1.71 1.61.47 3.2 1.02 4.81 1.46 5.91 1.62 12.3 1.93 18.35 2.82 1.49.22 2.86.2 4.35.1.92-.07 3.19.24 3.95-.31.41-.3.2-.67.41-1.03.3-.5.66-.72 1.16-1.04.84-.52 1.8-.83 1.94-1.92.34-2.66-2.99-4.08-4.77-5.23-2.27-1.47-5.02-2.04-7.44-3.24a64.86 64.86 0 01-3.9-2.17c-.56-.33-1.69-.7-2.07-1.21-.4-.52-.01-1.27.15-2.02.68-3.1.45-6.27.8-9.4.35-3.13.26-6.28.37-9.43.12-3.25.39-6.48.6-9.72.18-3 .37-6.03.4-9.03.03-2.78.41-5.5.5-8.3.03-.94-.14-2.66.5-3.47.55-.7 2.38-.61 3.23-.74 2.3-.33 4.49-.62 6.76-.83 5.41-.47 11.43-.83 16.55-2.71 2.1-.78 4.91-1.84 5.61-4.27.8-2.78-.24-6.2-.28-9.05-.03-3.04-.92-6-1.58-8.95-.7-3.17-1.16-6.4-1.93-9.56-.7-2.9-1.84-5.46-2.93-8.22-.44-1.11-2.94-4.96-2.16-5.9.42-.52 1.92-.65 2.53-.88 1.32-.5 2.64-1.08 3.85-1.8 1.62-.95 5.17-2.53 5.33-4.66.16-2.03-1.84-4.09-2.86-5.69-1.63-2.57-3.7-4.82-5.26-7.44-3.14-5.3-5.65-11.11-7.94-16.83-1.2-2.98-1.6-5.8-1.8-9 3.5.02 7.04.45 10.5-.04 3.78-.53 7.55-1.43 11.3-2.16 6.8-1.34 13.34-2.86 19.65-5.88 5.9-2.83 11.9-5.93 16.78-10.42 2.53-2.32 5.11-4.69 7.3-7.34 2.24-2.73 3.93-5.83 5.66-8.9a57.92 57.92 0 004.63-10.63c.24-.74.24-1.69.55-2.39.35-.79.99-.81 1.65-1.23.93-.59 1.55-2.55-.07-2.85zM193.3 14.65c.8.68 4.24 3.1 5.35 2.5 1.37-.72-.8-2.9-1.39-3.43-.74-.69-3.4-2.76-4.4-2.57-2.04.39-.27 2.88.44 3.5z" clip-rule="evenodd"/>
  <path fill="#8D8DAA" fill-rule="evenodd" d="M195 39.41c.45-.89 1.65-1.21 2.2-2.07.67-1.03.98-1.93.73-3.2-1.7.57-3.65 2.31-4.79 3.67-.95 1.14-2.3 3.51.18 3.52l-.06-1.02c.75.11 1.4-.23 1.74-.9zM186.87 24.66c1.1.32 2.01.27 3.14.3.81.01 1.93.46 2.59-.04-.59-.34.15-.36 0-.7-.12-.27-.35-.18-.54-.4-.67-.8-1.25-.79-2.31-.95-.83-.13-2.04-.43-2.84-.02-.83.43-1.15 1.49-.04 1.8zM202.53 49.08c.71-.6 1.49-2.32 1.63-3.21.06-.35-.2-.62-.16-.88.05-.49 1.06-1.43 0-1.83-.92-.36-1.78 2.38-2.02 2.97-.24.61-.9 1.8-.7 2.4.18.48.77.96 1.25.55zM211.04 12.1c.64-.6 1.05-1.28.98-2.1-.05-.65-.53-2.88-1.08-2.81-1.8.22-1 5.92.1 4.9zM172.81 111.84c-.15-.55-.69-3.88-1.63-3.66-.7.18.03 3.11.06 3.5.07.8-1.48.78-2.2.67-1.15-.17-1.05-.84-1.22-1.88-.07-.4-.32-2.17-1.14-1.52-.55.44-.16 2.63-.1 3.13.15 1.73.34 4.69 1.37 6.26.4.63.78.93 1.2.13.44-.81-.54-3.3-.72-4.13.82.08 3.16-.18 3.66.66.44.78-.27 2.98 1.16 3.16.86.1.7-.88.62-1.64-.17-1.6-.64-3.14-1.06-4.68zM175 111.06c-.95.43.24 6.65 1.62 6.45 1.61-.23-.72-6.85-1.63-6.45zM173.94 109c-.11 1.4 1.7 1.93 1.8.4.06-1.17-1.68-1.87-1.8-.4zM163.95 71.87c.83 3.1 8.4 4.42 7.38.24-.51-2.09-2.64-.23-4.13-.48-.96-.15-3.83-1.94-3.25.24zM162.05 66.35c.36-1.66-3.27-3.49-4.58-3.03-1.92.67-1.92 4.94-.45 6.07.2.15.79.5 1.08.22.46-.45-.04-.32-.15-.77-.17-.72-.73-1.63-.17-2.44 1.04-1.53 3.76 2.32 4.27-.05zM151 74.4c-1.3-.08-2.38 1.95-.45 1.78.36-.04 1.16-.13 1.37-.51.35-.65-.34-1.25-.92-1.28zM214.4 26.04c-.45-.65-1.39-1.69-2.2-1.04-.71.58-.59 2-.31 2.7.74 1.9 2.48 3.6 4.45 2.5-.68-1.37-1.07-2.9-1.94-4.16z" clip-rule="evenodd"/>
</svg>